<svg xmlns="http://www.w3.org/2000/svg" xmlns:xlink="http://www.w3.org/1999/xlink" width="600" zoomAndPan="magnify" viewBox="0 0 450 149.999998" height="200" preserveAspectRatio="xMidYMid meet" version="1.0"><defs><g/><clipPath id="3c6985d35a"><path d="M 337.902344 0 L 439.152344 0 L 439.152344 50.460938 L 337.902344 50.460938 Z M 337.902344 0 " clip-rule="nonzero"/></clipPath><clipPath id="5a1c893db9"><path d="M 15 99.210938 L 116.25 99.210938 L 116.25 150 L 15 150 Z M 15 99.210938 " clip-rule="nonzero"/></clipPath></defs><rect x="-45" width="540" fill="#ffffff" y="-15" height="179.999997" fill-opacity="1"/><rect x="-45" width="540" fill="#ebe4de" y="-15" height="179.999997" fill-opacity="1"/><g clip-path="url(#3c6985d35a)"><path fill="#ffffff" d="M 399.148438 5.839844 C 406.164062 1.246094 418.257812 0.648438 439.480469 0 C 418.257812 -0.652344 406.164062 -1.25 399.148438 -5.84375 C 401.238281 -10.558594 405.746094 -16.027344 412.671875 -23.984375 C 404.71875 -17.054688 399.25 -12.550781 394.53125 -10.457031 C 389.941406 -17.476562 389.34375 -29.570312 388.691406 -50.789062 C 388.039062 -29.570312 387.441406 -17.476562 382.851562 -10.457031 C 378.132812 -12.550781 372.664062 -17.054688 364.710938 -23.984375 C 371.636719 -16.027344 376.144531 -10.558594 378.234375 -5.84375 C 371.21875 -1.25 359.125 -0.652344 337.902344 0 C 359.125 0.648438 371.21875 1.246094 378.234375 5.839844 C 376.144531 10.558594 371.636719 16.023438 364.710938 23.980469 C 372.664062 17.050781 378.132812 12.546875 382.851562 10.457031 C 387.441406 17.472656 388.039062 29.566406 388.691406 50.789062 C 389.34375 29.566406 389.941406 17.472656 394.53125 10.457031 C 399.25 12.546875 404.71875 17.050781 412.671875 23.980469 C 405.746094 16.023438 401.238281 10.558594 399.148438 5.839844 Z M 399.148438 5.839844 " fill-opacity="1" fill-rule="nonzero"/></g><g clip-path="url(#5a1c893db9)"><path fill="#ffffff" d="M 76.246094 155.839844 C 83.261719 151.246094 95.355469 150.648438 116.578125 150 C 95.355469 149.347656 83.261719 148.75 76.246094 144.15625 C 78.335938 139.441406 82.84375 133.972656 89.769531 126.015625 C 81.816406 132.945312 76.347656 137.449219 71.628906 139.542969 C 67.039062 132.523438 66.441406 120.429688 65.789062 99.210938 C 65.136719 120.429688 64.539062 132.523438 59.949219 139.542969 C 55.230469 137.449219 49.761719 132.945312 41.808594 126.015625 C 48.734375 133.972656 53.242188 139.441406 55.332031 144.15625 C 48.316406 148.75 36.222656 149.347656 15 150 C 36.222656 150.648438 48.316406 151.246094 55.332031 155.839844 C 53.242188 160.558594 48.734375 166.023438 41.808594 173.980469 C 49.761719 167.050781 55.230469 162.546875 59.949219 160.457031 C 64.539062 167.472656 65.136719 179.566406 65.789062 200.789062 C 66.441406 179.566406 67.039062 167.472656 71.628906 160.457031 C 76.347656 162.546875 81.816406 167.050781 89.769531 173.980469 C 82.84375 166.023438 78.335938 160.558594 76.246094 155.839844 Z M 76.246094 155.839844 " fill-opacity="1" fill-rule="nonzero"/></g><g fill="#000000" fill-opacity="1"><g transform="translate(121.568947, 33.760496)"><g><path d="M 12.347656 -1.03125 L 14.929688 -0.0117188 C 14.929688 -0.0117188 14.4375 -0.253906 14.4375 -1.679688 L 14.4375 -5.773438 C 14.4375 -7.199219 14.929688 -7.355469 14.929688 -7.355469 L 12.46875 -7.355469 C 12.46875 -7.355469 12.972656 -7.1875 12.972656 -5.761719 L 12.972656 -3.289062 C 12.898438 -1.65625 10.765625 -0.5625 7.871094 -0.5625 C 4.535156 -0.5625 1.824219 -3.085938 1.824219 -8.628906 C 1.824219 -14.160156 5.339844 -16.738281 7.871094 -16.738281 C 10.945312 -16.738281 12.179688 -15.9375 13.738281 -13.390625 L 14.554688 -15.601562 C 13.210938 -15.238281 12.550781 -17.207031 8.375 -17.207031 C 3.648438 -17.207031 0.300781 -14.050781 0.300781 -8.59375 C 0.300781 -3.144531 3.695312 -0.0117188 7.871094 -0.0117188 C 9.625 -0.0117188 11.136719 -0.335938 12.347656 -1.03125 Z M 12.347656 -1.03125 "/></g></g></g><g fill="#000000" fill-opacity="1"><g transform="translate(137.036975, 33.760496)"><g><path d="M 6.46875 -12.839844 C 3.058594 -12.839844 0.300781 -9.949219 0.300781 -6.40625 C 0.300781 -2.867188 3.058594 0.0117188 6.46875 0.0117188 C 9.875 0.0117188 12.636719 -2.867188 12.636719 -6.40625 C 12.636719 -9.949219 9.875 -12.839844 6.46875 -12.839844 Z M 6.46875 -0.539062 C 3.898438 -0.539062 1.8125 -3.253906 1.8125 -6.46875 C 1.8125 -9.683594 3.898438 -12.289062 6.46875 -12.289062 C 9.035156 -12.289062 11.125 -9.683594 11.125 -6.46875 C 11.125 -3.253906 9.035156 -0.539062 6.46875 -0.539062 Z M 6.46875 -0.539062 "/></g></g></g><g fill="#000000" fill-opacity="1"><g transform="translate(150.213004, 33.760496)"><g><path d="M 6.46875 -12.839844 C 3.058594 -12.839844 0.300781 -9.949219 0.300781 -6.40625 C 0.300781 -2.867188 3.058594 0.0117188 6.46875 0.0117188 C 9.875 0.0117188 12.636719 -2.867188 12.636719 -6.40625 C 12.636719 -9.949219 9.875 -12.839844 6.46875 -12.839844 Z M 6.46875 -0.539062 C 3.898438 -0.539062 1.8125 -3.253906 1.8125 -6.46875 C 1.8125 -9.683594 3.898438 -12.289062 6.46875 -12.289062 C 9.035156 -12.289062 11.125 -9.683594 11.125 -6.46875 C 11.125 -3.253906 9.035156 -0.539062 6.46875 -0.539062 Z M 6.46875 -0.539062 "/></g></g></g><g fill="#000000" fill-opacity="1"><g transform="translate(163.389032, 33.760496)"><g><path d="M 10.546875 -5.101562 C 10.546875 -2.796875 9.214844 -0.503906 6.253906 -0.503906 C 4.210938 -0.503906 1.824219 -2.101562 1.824219 -6.421875 C 1.824219 -14.652344 9.550781 -13.535156 10.453125 -9.253906 C 10.210938 -14.953125 0.300781 -14.773438 0.300781 -6.457031 C 0.300781 -2.53125 2.773438 0 6.371094 0 C 8.230469 0 9.730469 -0.792969 10.535156 -2.015625 L 10.535156 -1.414062 C 10.535156 -0.253906 11.207031 0 12.503906 0 C 12.503906 0 12 -0.167969 12 -1.597656 L 12 -15.925781 C 12 -17.351562 12.503906 -17.605469 12.503906 -17.605469 L 10.546875 -18.359375 Z M 10.546875 -5.101562 "/></g></g></g><g fill="#000000" fill-opacity="1"><g transform="translate(176.433053, 33.760496)"><g/></g></g><g fill="#000000" fill-opacity="1"><g transform="translate(182.67307, 33.760496)"><g><path d="M 12.648438 -17.207031 L 0.792969 -17.207031 L 0.300781 -14.914062 C 0.300781 -14.914062 0.898438 -16.597656 5.832031 -16.726562 C 5.929688 -16.476562 6.011719 -16.09375 6.011719 -15.527344 L 6.011719 -1.597656 C 6.011719 -0.167969 5.507812 -0.0117188 5.507812 -0.0117188 L 7.96875 -0.0117188 C 7.96875 -0.0117188 7.476562 -0.15625 7.476562 -1.585938 L 7.476562 -15.527344 C 7.476562 -16.09375 7.546875 -16.476562 7.644531 -16.726562 C 12.539062 -16.585938 13.140625 -14.914062 13.140625 -14.914062 Z M 12.648438 -17.207031 "/></g></g></g><g fill="#000000" fill-opacity="1"><g transform="translate(196.353096, 33.760496)"><g><path d="M 2.257812 -18.359375 L 0.300781 -17.605469 C 0.300781 -17.605469 0.804688 -17.363281 0.804688 -15.925781 L 0.804688 -1.597656 C 0.804688 -0.167969 0.300781 0 0.300781 0 C 1.597656 0 2.269531 -0.253906 2.269531 -1.414062 Z M 8.761719 0 L 11.21875 0 C 11.21875 0 10.714844 -0.15625 10.714844 -1.585938 L 10.714844 -9.503906 C 10.714844 -13.414062 3.132812 -14.617188 2.351562 -9.253906 C 3.539062 -13.441406 9.253906 -13.402344 9.253906 -9.226562 C 9.253906 -1.597656 9.253906 -1.597656 9.253906 -1.597656 C 9.253906 -0.167969 8.761719 0 8.761719 0 Z M 8.761719 0 "/></g></g></g><g fill="#000000" fill-opacity="1"><g transform="translate(208.113124, 33.760496)"><g><path d="M 1.511719 -16.105469 C 0.851562 -16.105469 0.300781 -15.550781 0.300781 -14.878906 C 0.300781 -14.21875 0.851562 -13.679688 1.511719 -13.679688 C 2.183594 -13.679688 2.722656 -14.21875 2.722656 -14.878906 C 2.722656 -15.550781 2.183594 -16.105469 1.511719 -16.105469 Z M 0.421875 0 L 2.878906 0 C 2.878906 0 2.386719 -0.15625 2.386719 -1.585938 L 2.375 -12.851562 L 0.421875 -12.097656 C 0.421875 -12.097656 0.925781 -11.855469 0.925781 -10.429688 L 0.925781 -1.597656 C 0.925781 -0.167969 0.421875 0 0.421875 0 Z M 0.421875 0 "/></g></g></g><g fill="#000000" fill-opacity="1"><g transform="translate(211.533134, 33.760496)"><g><path d="M 0.300781 -12.085938 C 0.300781 -12.085938 0.804688 -11.84375 0.804688 -10.402344 L 0.804688 -1.597656 C 0.804688 -0.167969 0.300781 0 0.300781 0 C 1.597656 0 2.269531 -0.253906 2.269531 -1.414062 L 2.269531 -12.839844 Z M 8.761719 0 L 11.21875 0 C 11.21875 0 10.714844 -0.15625 10.714844 -1.585938 L 10.714844 -9.503906 C 10.714844 -13.414062 3.132812 -14.617188 2.351562 -9.253906 C 3.539062 -13.441406 9.253906 -13.402344 9.253906 -9.226562 C 9.253906 -1.597656 9.253906 -1.597656 9.253906 -1.597656 C 9.253906 -0.167969 8.761719 0 8.761719 0 Z M 8.761719 0 "/></g></g></g><g fill="#000000" fill-opacity="1"><g transform="translate(223.293162, 33.760496)"><g><path d="M 7.117188 -1.222656 C 4.96875 -1.222656 3.625 -0.421875 2.039062 -0.421875 C 1.355469 -0.421875 1.117188 -0.863281 1.117188 -1.273438 C 1.117188 -2.050781 2.039062 -2.386719 2.808594 -2.460938 C 3.683594 -1.859375 4.738281 -1.5 5.867188 -1.5 C 8.867188 -1.5 11.304688 -4.03125 11.304688 -7.164062 C 11.304688 -9.109375 10.355469 -10.835938 8.914062 -11.84375 C 9.421875 -12.636719 10.234375 -12.445312 10.800781 -12.132812 C 11.605469 -11.6875 12.335938 -13.066406 11.269531 -13.390625 C 9.898438 -13.800781 9.179688 -12.816406 8.785156 -11.953125 C 7.933594 -12.503906 6.9375 -12.839844 5.867188 -12.839844 C 2.867188 -12.839844 0.382812 -10.296875 0.382812 -7.164062 C 0.382812 -5.28125 1.285156 -3.613281 2.664062 -2.578125 C 1.523438 -2.566406 0.121094 -2.0625 0.121094 -0.886719 C 0.121094 -0.179688 0.707031 0.394531 1.632812 0.394531 C 3.191406 0.394531 4.488281 -0.695312 6.550781 -0.757812 C 8.746094 -0.816406 10.511719 0.371094 10.511719 2.566406 C 10.511719 4.765625 8.746094 6.203125 6.097656 6.203125 C 0.46875 6.203125 1.199219 1.164062 2.542969 0.828125 C -0.601562 -0.265625 -1.570312 6.671875 6.023438 6.671875 C 9.804688 6.671875 12.121094 5.015625 12.121094 2.472656 C 12.121094 -0.78125 8.375 -1.222656 7.117188 -1.222656 Z M 1.847656 -7.222656 C 1.847656 -10.054688 3.601562 -12.359375 5.867188 -12.359375 C 8.125 -12.359375 9.839844 -9.972656 9.839844 -7.128906 C 9.839844 -4.296875 8.125 -1.992188 5.867188 -1.992188 C 3.601562 -1.992188 1.847656 -4.378906 1.847656 -7.222656 Z M 1.847656 -7.222656 "/></g></g></g><g fill="#000000" fill-opacity="1"><g transform="translate(235.257181, 33.760496)"><g><path d="M 9.984375 -3.394531 C 9.984375 -2.425781 9.382812 -0.3125 6.046875 -0.3125 C 2.460938 -0.3125 1.523438 -2.808594 1.320312 -3.371094 L 0.300781 -2.136719 C 0.671875 -1.644531 1.835938 0 6.023438 0 C 10.222656 0 11.890625 -1.535156 11.890625 -3.648438 C 11.890625 -8.101562 2.484375 -6.035156 2.484375 -9.613281 C 2.484375 -11.507812 4.152344 -12.492188 5.808594 -12.492188 C 10.1875 -12.492188 10.246094 -9.792969 10.246094 -9.792969 L 10.714844 -11.761719 C 10.714844 -11.761719 9.011719 -12.828125 5.988281 -12.828125 C 1.164062 -12.828125 0.960938 -10.105469 0.960938 -9.601562 C 0.960938 -4.703125 9.984375 -6.960938 9.984375 -3.394531 Z M 9.984375 -3.394531 "/></g></g></g><g fill="#000000" fill-opacity="1"><g transform="translate(247.689206, 33.760496)"><g/></g></g><g fill="#000000" fill-opacity="1"><g transform="translate(253.929223, 33.760496)"><g><path d="M 14.207031 -2.664062 L 13.234375 -3.3125 C 12.132812 -1.414062 10.8125 -0.5625 7.871094 -0.5625 C 4.535156 -0.5625 1.824219 -3.085938 1.824219 -8.628906 C 1.824219 -14.160156 5.339844 -16.738281 7.871094 -16.738281 C 10.945312 -16.738281 12.179688 -15.9375 13.738281 -13.390625 L 14.554688 -15.601562 C 13.210938 -15.238281 12.550781 -17.207031 8.375 -17.207031 C 3.648438 -17.207031 0.300781 -14.050781 0.300781 -8.59375 C 0.300781 -3.144531 3.695312 -0.0117188 7.871094 -0.0117188 C 10.65625 -0.0117188 12.816406 -0.828125 14.207031 -2.664062 Z M 14.207031 -2.664062 "/></g></g></g><g fill="#000000" fill-opacity="1"><g transform="translate(269.025249, 33.760496)"><g><path d="M 6.46875 -12.839844 C 3.058594 -12.839844 0.300781 -9.949219 0.300781 -6.40625 C 0.300781 -2.867188 3.058594 0.0117188 6.46875 0.0117188 C 9.875 0.0117188 12.636719 -2.867188 12.636719 -6.40625 C 12.636719 -9.949219 9.875 -12.839844 6.46875 -12.839844 Z M 6.46875 -0.539062 C 3.898438 -0.539062 1.8125 -3.253906 1.8125 -6.46875 C 1.8125 -9.683594 3.898438 -12.289062 6.46875 -12.289062 C 9.035156 -12.289062 11.125 -9.683594 11.125 -6.46875 C 11.125 -3.253906 9.035156 -0.539062 6.46875 -0.539062 Z M 6.46875 -0.539062 "/></g></g></g><g fill="#000000" fill-opacity="1"><g transform="translate(282.201277, 33.760496)"><g><path d="M 2.269531 -12.839844 L 0.3125 -12.085938 C 0.3125 -12.085938 0.804688 -11.84375 0.804688 -10.402344 L 0.804688 -1.597656 C 0.804688 -0.167969 0.300781 0 0.300781 0 C 1.597656 0 2.269531 -0.253906 2.269531 -1.414062 Z M 14.386719 0 L 16.847656 0 C 16.847656 0 16.355469 -0.15625 16.355469 -1.585938 L 16.34375 -9.683594 C 16.34375 -13.429688 9.613281 -14.472656 9.394531 -9.253906 C 10.152344 -12.972656 14.890625 -13.296875 14.890625 -9.804688 C 14.890625 -2.160156 14.890625 -1.597656 14.890625 -1.597656 C 14.890625 -0.167969 14.386719 0 14.386719 0 Z M 7.34375 0 L 9.804688 0 C 9.804688 0 9.300781 -0.15625 9.300781 -1.585938 L 9.300781 -9.683594 C 9.300781 -13.429688 2.554688 -14.472656 2.351562 -9.253906 C 3.109375 -12.972656 7.847656 -13.296875 7.847656 -9.804688 C 7.847656 -2.160156 7.847656 -1.597656 7.847656 -1.597656 C 7.847656 -0.167969 7.34375 0 7.34375 0 Z M 7.34375 0 "/></g></g></g><g fill="#000000" fill-opacity="1"><g transform="translate(299.589315, 33.760496)"><g><path d="M 1.511719 -16.105469 C 0.851562 -16.105469 0.300781 -15.550781 0.300781 -14.878906 C 0.300781 -14.21875 0.851562 -13.679688 1.511719 -13.679688 C 2.183594 -13.679688 2.722656 -14.21875 2.722656 -14.878906 C 2.722656 -15.550781 2.183594 -16.105469 1.511719 -16.105469 Z M 0.421875 0 L 2.878906 0 C 2.878906 0 2.386719 -0.15625 2.386719 -1.585938 L 2.375 -12.851562 L 0.421875 -12.097656 C 0.421875 -12.097656 0.925781 -11.855469 0.925781 -10.429688 L 0.925781 -1.597656 C 0.925781 -0.167969 0.421875 0 0.421875 0 Z M 0.421875 0 "/></g></g></g><g fill="#000000" fill-opacity="1"><g transform="translate(303.009325, 33.760496)"><g><path d="M 0.300781 -12.085938 C 0.300781 -12.085938 0.804688 -11.84375 0.804688 -10.402344 L 0.804688 -1.597656 C 0.804688 -0.167969 0.300781 0 0.300781 0 C 1.597656 0 2.269531 -0.253906 2.269531 -1.414062 L 2.269531 -12.839844 Z M 8.761719 0 L 11.21875 0 C 11.21875 0 10.714844 -0.15625 10.714844 -1.585938 L 10.714844 -9.503906 C 10.714844 -13.414062 3.132812 -14.617188 2.351562 -9.253906 C 3.539062 -13.441406 9.253906 -13.402344 9.253906 -9.226562 C 9.253906 -1.597656 9.253906 -1.597656 9.253906 -1.597656 C 9.253906 -0.167969 8.761719 0 8.761719 0 Z M 8.761719 0 "/></g></g></g><g fill="#000000" fill-opacity="1"><g transform="translate(314.769353, 33.760496)"><g><path d="M 7.117188 -1.222656 C 4.96875 -1.222656 3.625 -0.421875 2.039062 -0.421875 C 1.355469 -0.421875 1.117188 -0.863281 1.117188 -1.273438 C 1.117188 -2.050781 2.039062 -2.386719 2.808594 -2.460938 C 3.683594 -1.859375 4.738281 -1.5 5.867188 -1.5 C 8.867188 -1.5 11.304688 -4.03125 11.304688 -7.164062 C 11.304688 -9.109375 10.355469 -10.835938 8.914062 -11.84375 C 9.421875 -12.636719 10.234375 -12.445312 10.800781 -12.132812 C 11.605469 -11.6875 12.335938 -13.066406 11.269531 -13.390625 C 9.898438 -13.800781 9.179688 -12.816406 8.785156 -11.953125 C 7.933594 -12.503906 6.9375 -12.839844 5.867188 -12.839844 C 2.867188 -12.839844 0.382812 -10.296875 0.382812 -7.164062 C 0.382812 -5.28125 1.285156 -3.613281 2.664062 -2.578125 C 1.523438 -2.566406 0.121094 -2.0625 0.121094 -0.886719 C 0.121094 -0.179688 0.707031 0.394531 1.632812 0.394531 C 3.191406 0.394531 4.488281 -0.695312 6.550781 -0.757812 C 8.746094 -0.816406 10.511719 0.371094 10.511719 2.566406 C 10.511719 4.765625 8.746094 6.203125 6.097656 6.203125 C 0.46875 6.203125 1.199219 1.164062 2.542969 0.828125 C -0.601562 -0.265625 -1.570312 6.671875 6.023438 6.671875 C 9.804688 6.671875 12.121094 5.015625 12.121094 2.472656 C 12.121094 -0.78125 8.375 -1.222656 7.117188 -1.222656 Z M 1.847656 -7.222656 C 1.847656 -10.054688 3.601562 -12.359375 5.867188 -12.359375 C 8.125 -12.359375 9.839844 -9.972656 9.839844 -7.128906 C 9.839844 -4.296875 8.125 -1.992188 5.867188 -1.992188 C 3.601562 -1.992188 1.847656 -4.378906 1.847656 -7.222656 Z M 1.847656 -7.222656 "/></g></g></g><g fill="#000000" fill-opacity="1"><g transform="translate(326.733372, 33.760496)"><g/></g></g><g fill="#000000" fill-opacity="1"><g transform="translate(332.9734, 33.760496)"><g><path d="M 11.460938 -4.65625 C 11.460938 -2.089844 9.910156 -0.421875 6.574219 -0.421875 C 3 -0.421875 1.523438 -3.78125 1.320312 -4.535156 L 0.300781 -2.878906 C 0.671875 -2.207031 2.363281 0 6.5625 0 C 10.753906 0 13.378906 -1.378906 13.378906 -4.859375 C 13.378906 -10.859375 2.6875 -8.566406 2.6875 -13.378906 C 2.6875 -15.925781 4.835938 -16.753906 6.492188 -16.753906 C 10.859375 -16.753906 11.53125 -13.308594 11.53125 -13.308594 L 12.011719 -15.949219 C 12.011719 -15.949219 9.683594 -17.195312 6.671875 -17.195312 C 1.847656 -17.195312 1.164062 -14.039062 1.164062 -13.367188 C 1.164062 -7.175781 11.460938 -9.671875 11.460938 -4.65625 Z M 11.460938 -4.65625 "/></g></g></g><g fill="#000000" fill-opacity="1"><g transform="translate(346.893443, 33.760496)"><g><path d="M 6.46875 -12.839844 C 3.058594 -12.839844 0.300781 -9.949219 0.300781 -6.40625 C 0.300781 -2.867188 3.058594 0.0117188 6.46875 0.0117188 C 9.875 0.0117188 12.636719 -2.867188 12.636719 -6.40625 C 12.636719 -9.949219 9.875 -12.839844 6.46875 -12.839844 Z M 6.46875 -0.539062 C 3.898438 -0.539062 1.8125 -3.253906 1.8125 -6.46875 C 1.8125 -9.683594 3.898438 -12.289062 6.46875 -12.289062 C 9.035156 -12.289062 11.125 -9.683594 11.125 -6.46875 C 11.125 -3.253906 9.035156 -0.539062 6.46875 -0.539062 Z M 6.46875 -0.539062 "/></g></g></g><g fill="#000000" fill-opacity="1"><g transform="translate(360.069483, 33.760496)"><g><path d="M 6.46875 -12.839844 C 3.058594 -12.839844 0.300781 -9.949219 0.300781 -6.40625 C 0.300781 -2.867188 3.058594 0.0117188 6.46875 0.0117188 C 9.875 0.0117188 12.636719 -2.867188 12.636719 -6.40625 C 12.636719 -9.949219 9.875 -12.839844 6.46875 -12.839844 Z M 6.46875 -0.539062 C 3.898438 -0.539062 1.8125 -3.253906 1.8125 -6.46875 C 1.8125 -9.683594 3.898438 -12.289062 6.46875 -12.289062 C 9.035156 -12.289062 11.125 -9.683594 11.125 -6.46875 C 11.125 -3.253906 9.035156 -0.539062 6.46875 -0.539062 Z M 6.46875 -0.539062 "/></g></g></g><g fill="#000000" fill-opacity="1"><g transform="translate(373.245523, 33.760496)"><g><path d="M 0.300781 -12.085938 C 0.300781 -12.085938 0.804688 -11.84375 0.804688 -10.402344 L 0.804688 -1.597656 C 0.804688 -0.167969 0.300781 0 0.300781 0 C 1.597656 0 2.269531 -0.253906 2.269531 -1.414062 L 2.269531 -12.839844 Z M 8.761719 0 L 11.21875 0 C 11.21875 0 10.714844 -0.15625 10.714844 -1.585938 L 10.714844 -9.503906 C 10.714844 -13.414062 3.132812 -14.617188 2.351562 -9.253906 C 3.539062 -13.441406 9.253906 -13.402344 9.253906 -9.226562 C 9.253906 -1.597656 9.253906 -1.597656 9.253906 -1.597656 C 9.253906 -0.167969 8.761719 0 8.761719 0 Z M 8.761719 0 "/></g></g></g></svg>