<svg xmlns="http://www.w3.org/2000/svg" xmlns:xlink="http://www.w3.org/1999/xlink" width="1500" zoomAndPan="magnify" viewBox="0 0 1125 374.999991" height="500" preserveAspectRatio="xMidYMid meet" version="1.0"><defs><g/></defs><rect x="-112.5" width="1350" fill="#ffffff" y="-37.499999" height="449.999989" fill-opacity="1"/><rect x="-112.5" width="1350" fill="#f8f4ef" y="-37.499999" height="449.999989" fill-opacity="1"/><g fill="#000000" fill-opacity="1"><g transform="translate(187.895743, 200.055544)"><g><path d="M 27.765625 7.417969 C 33.089844 7.035156 40.125 5.324219 44.308594 3.421875 L 45.449219 3.042969 C 45.640625 3.042969 46.589844 2.664062 49.253906 1.519531 C 50.773438 0.949219 58.574219 -2.851562 58.761719 -3.042969 L 59.902344 -3.804688 C 63.707031 -5.894531 67.699219 -8.175781 69.601562 -9.316406 C 70.363281 -9.890625 71.3125 -10.460938 71.503906 -10.460938 L 71.695312 -10.648438 C 71.695312 -10.839844 72.074219 -11.21875 72.644531 -11.410156 L 74.738281 -12.742188 L 82.152344 -17.304688 L 84.054688 -18.828125 L 85.386719 -19.777344 L 86.71875 -20.539062 L 90.140625 -23.199219 C 92.042969 -24.339844 93.945312 -25.863281 94.515625 -26.242188 L 96.605469 -27.953125 L 98.316406 -29.097656 L 106.875 -35.941406 L 108.015625 -36.894531 L 110.679688 -38.984375 L 112.960938 -41.078125 C 113.53125 -41.648438 117.144531 -44.691406 118.285156 -45.640625 L 123.421875 -49.824219 L 128.175781 -54.007812 C 129.125 -54.960938 129.503906 -54.960938 133.691406 -55.71875 L 142.4375 -57.429688 L 146.242188 -58.382812 C 147.191406 -58.574219 147.953125 -58.761719 148.140625 -58.953125 C 148.714844 -59.144531 156.890625 -61.042969 159.363281 -61.425781 L 163.546875 -62.1875 C 164.496094 -62.566406 167.921875 -62.757812 171.152344 -62.945312 C 176.476562 -63.328125 176.476562 -63.328125 177.046875 -62.566406 C 177.429688 -62.1875 177.617188 -61.613281 177.617188 -61.234375 C 177.617188 -60.664062 177.808594 -59.714844 178.378906 -59.902344 C 178.949219 -60.09375 179.710938 -60.664062 179.519531 -61.996094 C 179.332031 -63.515625 178.949219 -63.898438 177.238281 -64.65625 C 175.90625 -65.609375 169.25 -65.039062 160.3125 -63.328125 L 155.9375 -62.566406 C 150.042969 -61.425781 144.339844 -60.09375 143.957031 -59.902344 C 143.578125 -59.714844 143.386719 -59.714844 143.386719 -59.902344 L 142.4375 -59.523438 C 142.058594 -59.523438 140.914062 -59.144531 139.964844 -58.953125 L 136.921875 -58.191406 L 135.972656 -58.191406 C 135.589844 -58.191406 135.402344 -57.8125 135.019531 -57.8125 L 133.308594 -57.8125 C 132.738281 -57.8125 132.546875 -58 132.929688 -58.191406 C 134.832031 -59.902344 141.105469 -65.417969 142.628906 -66.558594 L 146.429688 -69.601562 L 149.09375 -71.882812 L 155.75 -77.398438 C 156.699219 -78.351562 158.980469 -80.441406 161.265625 -82.34375 L 162.023438 -82.722656 C 162.214844 -82.722656 162.40625 -82.914062 162.40625 -83.292969 L 165.636719 -85.957031 L 201.199219 -118.476562 C 203.671875 -119.996094 204.242188 -120.949219 203.671875 -121.707031 C 203.101562 -122.28125 202.339844 -122.28125 201.007812 -121.519531 C 200.058594 -120.949219 198.726562 -120.566406 197.777344 -120.378906 C 197.207031 -119.617188 196.636719 -118.855469 195.875 -118.476562 C 196.253906 -118.285156 164.117188 -88.046875 160.125 -84.816406 C 159.933594 -84.625 159.550781 -84.433594 159.171875 -84.246094 C 158.601562 -83.675781 158.03125 -83.484375 157.839844 -83.484375 C 157.652344 -83.675781 157.269531 -83.484375 157.082031 -83.292969 C 156.890625 -83.105469 155.75 -82.722656 154.417969 -82.535156 C 151.945312 -81.773438 148.332031 -80.820312 144.71875 -79.679688 L 140.535156 -78.539062 C 139.773438 -78.351562 138.824219 -77.96875 138.824219 -77.96875 C 138.632812 -77.78125 138.253906 -77.589844 137.875 -77.589844 C 137.492188 -77.589844 136.921875 -77.589844 136.542969 -77.398438 C 135.972656 -77.019531 133.117188 -76.257812 127.222656 -74.546875 L 122.28125 -73.214844 C 116.382812 -71.503906 116.195312 -71.3125 112.199219 -71.3125 C 108.585938 -71.125 108.207031 -71.125 107.066406 -71.882812 C 105.164062 -72.835938 104.023438 -74.546875 104.023438 -77.019531 C 104.023438 -78.730469 104.214844 -79.109375 105.355469 -81.394531 L 106.683594 -83.863281 L 107.445312 -84.816406 C 108.777344 -87.097656 115.054688 -93.753906 118.855469 -96.796875 L 121.707031 -99.269531 C 122.851562 -100.410156 124.941406 -101.929688 125.320312 -101.929688 C 125.511719 -101.929688 125.703125 -102.121094 125.890625 -102.3125 C 125.890625 -102.5 126.652344 -103.070312 127.605469 -103.644531 L 129.503906 -104.785156 C 129.886719 -105.164062 135.78125 -108.777344 137.683594 -109.917969 L 143.386719 -113.339844 L 145.101562 -114.480469 C 145.859375 -114.863281 146.621094 -115.242188 146.8125 -115.242188 C 147 -115.242188 147.570312 -115.433594 148.140625 -115.8125 C 148.902344 -116.574219 149.09375 -116.574219 153.085938 -118.667969 C 158.980469 -121.707031 161.644531 -123.039062 161.835938 -123.039062 C 162.023438 -123.039062 162.214844 -123.230469 162.214844 -123.421875 C 162.214844 -123.421875 162.40625 -123.609375 162.59375 -123.609375 C 162.785156 -123.609375 163.546875 -123.992188 164.308594 -124.371094 C 165.066406 -124.75 165.828125 -125.132812 166.019531 -125.132812 C 166.207031 -125.132812 166.589844 -125.132812 166.777344 -125.511719 C 167.160156 -125.890625 174.957031 -128.933594 178.570312 -130.265625 C 181.042969 -131.027344 183.515625 -131.597656 185.414062 -131.976562 C 185.984375 -131.976562 187.128906 -132.359375 187.699219 -132.546875 C 188.269531 -132.929688 189.410156 -133.308594 190.171875 -133.308594 C 191.3125 -133.5 191.882812 -133.691406 192.261719 -133.878906 C 193.785156 -134.070312 196.253906 -135.210938 197.207031 -135.972656 C 197.585938 -136.542969 197.585938 -136.730469 197.394531 -137.304688 C 197.207031 -137.683594 196.824219 -138.0625 196.445312 -138.0625 L 195.496094 -138.0625 C 195.113281 -138.253906 194.355469 -138.0625 193.972656 -138.0625 C 193.402344 -137.875 191.691406 -137.683594 190.171875 -137.683594 L 186.9375 -137.304688 C 186.175781 -137.304688 182.5625 -136.921875 179.140625 -136.730469 L 149.664062 -135.972656 L 141.867188 -135.589844 C 141.675781 -135.589844 141.105469 -135.589844 140.914062 -135.78125 C 140.535156 -135.972656 140.15625 -135.972656 140.15625 -135.78125 C 139.964844 -135.78125 137.492188 -135.402344 134.449219 -135.210938 C 128.175781 -134.832031 127.792969 -134.832031 123.039062 -134.449219 L 116.195312 -133.691406 L 104.402344 -132.546875 L 100.03125 -131.976562 L 97.746094 -131.789062 C 95.84375 -131.597656 93.183594 -131.027344 89.761719 -130.457031 L 81.394531 -128.933594 L 80.632812 -128.746094 C 80.441406 -128.554688 79.109375 -128.175781 77.589844 -127.984375 C 69.601562 -126.273438 63.328125 -123.992188 57.242188 -120.566406 C 55.53125 -119.617188 52.675781 -117.144531 52.105469 -115.8125 C 51.15625 -113.910156 51.917969 -112.390625 53.816406 -112.390625 C 54.769531 -112.390625 54.769531 -112.390625 54.007812 -113.339844 C 53.628906 -113.722656 53.4375 -114.292969 53.4375 -114.480469 C 53.4375 -114.863281 56.289062 -117.714844 56.480469 -117.714844 C 56.671875 -117.714844 57.050781 -117.90625 57.429688 -118.285156 C 58.191406 -119.046875 61.042969 -120.757812 61.996094 -120.949219 L 62.945312 -121.328125 L 67.320312 -123.230469 C 67.699219 -123.421875 68.269531 -123.609375 68.652344 -123.609375 C 69.03125 -123.609375 69.601562 -123.800781 70.171875 -124.179688 C 70.742188 -124.5625 71.882812 -124.941406 72.835938 -125.132812 L 78.730469 -126.652344 L 83.484375 -127.792969 L 91.28125 -129.316406 L 93.5625 -129.695312 C 98.128906 -130.265625 99.839844 -130.457031 100.03125 -130.648438 C 100.21875 -130.835938 103.644531 -131.21875 105.734375 -131.40625 L 110.296875 -131.789062 C 116.382812 -132.546875 117.714844 -132.738281 120.1875 -132.738281 L 125.132812 -133.308594 C 127.605469 -133.5 129.695312 -133.691406 135.78125 -133.878906 L 141.105469 -134.261719 L 154.417969 -134.449219 C 167.347656 -134.640625 175.527344 -134.832031 183.324219 -135.402344 C 184.273438 -135.402344 185.035156 -135.402344 185.226562 -135.210938 L 185.796875 -135.402344 L 186.175781 -135.402344 L 187.128906 -135.589844 L 187.316406 -135.589844 C 186.175781 -135.019531 184.65625 -134.449219 183.324219 -134.261719 C 182.371094 -133.878906 181.421875 -133.5 180.28125 -133.308594 C 180.660156 -133.117188 180.472656 -133.117188 179.710938 -132.929688 L 179.332031 -132.929688 L 178.761719 -132.738281 C 178.1875 -132.167969 176.859375 -131.597656 176.289062 -131.597656 C 176.097656 -131.597656 175.148438 -131.21875 174.386719 -130.835938 L 171.914062 -129.886719 C 170.773438 -129.503906 169.441406 -128.933594 166.589844 -127.605469 L 164.496094 -126.652344 C 163.738281 -126.273438 156.128906 -122.660156 155.558594 -122.28125 C 155.367188 -122.089844 155.179688 -122.089844 155.179688 -122.089844 C 154.988281 -122.28125 154.988281 -122.28125 154.988281 -122.089844 C 154.988281 -121.898438 154.417969 -121.519531 153.65625 -121.136719 C 152.898438 -120.757812 151.753906 -120.1875 151.183594 -119.808594 L 149.855469 -119.046875 L 149.09375 -118.667969 C 148.902344 -118.285156 147.382812 -117.523438 146.050781 -116.765625 L 143.386719 -115.242188 C 143.199219 -115.054688 142.816406 -114.863281 142.4375 -114.671875 L 140.914062 -113.722656 L 136.351562 -111.058594 C 135.972656 -110.679688 135.402344 -110.296875 135.210938 -110.296875 C 135.019531 -110.296875 134.832031 -110.296875 134.640625 -109.917969 C 134.449219 -109.726562 133.691406 -109.347656 133.117188 -109.15625 L 130.265625 -107.257812 L 126.652344 -104.972656 C 125.890625 -104.402344 124.941406 -103.832031 124.5625 -103.453125 C 124.179688 -103.070312 123.609375 -102.691406 123.609375 -102.691406 C 123.230469 -102.691406 120.757812 -100.980469 119.808594 -100.03125 L 114.480469 -95.273438 C 113.910156 -94.703125 113.339844 -94.324219 113.152344 -94.515625 C 112.960938 -94.515625 112.960938 -94.515625 112.960938 -94.324219 C 113.152344 -94.324219 112.960938 -93.945312 112.769531 -93.5625 C 112.582031 -93.375 112.390625 -93.183594 112.390625 -93.375 C 112.390625 -93.375 112.011719 -93.183594 111.628906 -92.613281 C 110.488281 -91.089844 109.917969 -90.710938 109.726562 -90.902344 C 109.539062 -90.902344 109.539062 -90.902344 109.539062 -90.710938 C 109.539062 -90.519531 109.539062 -90.140625 109.15625 -89.949219 C 108.015625 -88.429688 107.636719 -88.046875 106.113281 -85.957031 C 102.5 -80.820312 101.171875 -77.019531 102.5 -74.167969 C 103.070312 -72.453125 104.972656 -70.742188 106.683594 -69.984375 C 109.347656 -68.839844 116.574219 -69.410156 123.039062 -71.695312 L 147.953125 -79.300781 L 150.042969 -79.679688 L 152.707031 -80.441406 C 154.417969 -81.011719 155.179688 -81.203125 155.179688 -80.820312 L 155.75 -81.203125 C 155.9375 -81.203125 155.9375 -81.203125 156.128906 -81.394531 L 155.558594 -80.820312 L 152.707031 -78.351562 C 149.855469 -75.6875 145.101562 -71.503906 144.527344 -71.125 C 144.148438 -70.933594 143.769531 -70.363281 143.578125 -69.984375 L 143.007812 -69.410156 C 142.816406 -69.410156 142.058594 -68.839844 141.296875 -68.082031 L 139.773438 -66.941406 C 139.585938 -66.941406 139.015625 -66.371094 138.445312 -65.988281 L 136.160156 -63.898438 C 135.402344 -63.328125 134.640625 -62.566406 134.449219 -62.1875 C 134.261719 -61.804688 133.691406 -61.234375 133.308594 -61.042969 C 132.929688 -60.664062 132.167969 -60.285156 131.976562 -59.902344 C 130.835938 -58.953125 128.554688 -57.050781 128.363281 -57.050781 L 127.222656 -56.480469 C 126.273438 -56.101562 126.273438 -56.101562 123.992188 -55.71875 C 123.421875 -55.71875 122.28125 -55.339844 121.707031 -55.148438 C 121.136719 -54.960938 119.238281 -54.386719 117.523438 -54.007812 C 115.625 -53.628906 114.101562 -53.246094 113.910156 -53.058594 C 113.53125 -52.867188 113.722656 -52.867188 108.777344 -51.535156 C 106.683594 -50.964844 104.972656 -50.585938 104.972656 -50.773438 C 104.785156 -50.773438 104.59375 -50.773438 104.59375 -50.585938 C 104.402344 -50.394531 103.644531 -50.015625 102.691406 -49.824219 L 100.601562 -49.0625 L 98.886719 -48.492188 C 96.035156 -47.921875 95.085938 -47.542969 93.183594 -46.78125 C 92.234375 -46.210938 90.710938 -45.640625 89.949219 -45.449219 C 89.191406 -45.261719 88.238281 -44.878906 87.667969 -44.691406 C 87.289062 -44.5 86.335938 -44.121094 85.386719 -43.929688 C 82.535156 -43.167969 79.871094 -42.027344 74.925781 -39.554688 L 69.792969 -37.273438 L 69.222656 -36.894531 C 68.839844 -36.703125 67.699219 -35.941406 66.558594 -35.5625 L 63.898438 -34.230469 C 63.707031 -33.851562 62.1875 -33.28125 60.664062 -32.710938 C 58.191406 -31.757812 56.671875 -30.808594 52.105469 -27.382812 L 50.394531 -26.242188 C 45.261719 -23.390625 38.792969 -19.015625 35.941406 -16.734375 L 33.28125 -14.644531 C 30.996094 -12.929688 22.058594 -4.5625 22.058594 -4.375 C 22.058594 -4.183594 21.871094 -3.804688 21.488281 -3.613281 C 19.398438 -1.332031 18.445312 2.472656 19.398438 4.183594 C 20.730469 6.65625 23.769531 7.796875 27.765625 7.417969 Z M 23.390625 6.085938 C 21.871094 5.515625 20.539062 4.183594 20.347656 3.042969 C 20.15625 2.09375 20.539062 0.570312 21.488281 -0.949219 C 21.871094 -2.09375 25.863281 -6.65625 26.8125 -7.226562 L 27.953125 -8.367188 C 29.097656 -9.316406 31.949219 -11.980469 32.898438 -12.742188 L 34.800781 -14.074219 L 36.324219 -15.402344 L 37.273438 -16.164062 C 40.316406 -18.257812 43.167969 -20.347656 46.210938 -22.25 L 48.113281 -23.390625 L 48.875 -23.769531 L 49.445312 -24.339844 C 49.632812 -24.339844 49.824219 -24.53125 50.203125 -24.722656 L 51.535156 -25.671875 C 52.105469 -26.054688 52.488281 -26.054688 52.867188 -26.433594 C 53.4375 -27.003906 54.199219 -27.195312 54.769531 -27.574219 L 56.289062 -28.527344 C 57.8125 -29.097656 59.144531 -30.238281 60.472656 -30.808594 C 61.234375 -31.1875 61.804688 -31.566406 62.566406 -31.757812 C 63.328125 -31.949219 64.46875 -32.519531 65.039062 -32.898438 C 65.417969 -33.28125 66.941406 -34.039062 68.269531 -34.609375 L 72.074219 -36.703125 L 74.738281 -37.84375 C 75.308594 -38.035156 77.019531 -38.792969 78.539062 -39.554688 C 80.0625 -40.316406 82.914062 -41.457031 84.816406 -42.027344 C 89.761719 -43.550781 93.5625 -45.070312 95.085938 -45.640625 C 96.417969 -46.402344 101.929688 -47.921875 102.691406 -47.921875 C 102.882812 -47.921875 103.453125 -48.113281 103.832031 -48.304688 C 104.972656 -48.875 107.257812 -49.632812 109.15625 -49.824219 C 109.917969 -50.015625 111.441406 -50.394531 112.390625 -50.773438 C 113.53125 -51.15625 115.433594 -51.535156 116.574219 -51.726562 C 117.714844 -51.917969 119.238281 -52.296875 119.808594 -52.675781 L 122.28125 -53.246094 L 123.800781 -53.4375 L 124.179688 -53.628906 C 124.371094 -53.628906 124.179688 -53.246094 123.800781 -52.867188 L 122.851562 -51.917969 C 122.46875 -51.726562 120.566406 -49.632812 120.566406 -49.253906 C 120.566406 -49.253906 120.378906 -49.0625 120.1875 -49.0625 C 119.808594 -49.0625 119.238281 -48.683594 118.855469 -47.921875 C 118.285156 -47.351562 117.335938 -46.589844 116.574219 -46.019531 C 115.8125 -45.640625 114.863281 -44.878906 114.480469 -44.5 C 113.910156 -43.929688 113.152344 -43.359375 112.582031 -42.976562 C 112.011719 -42.40625 111.441406 -42.027344 111.441406 -42.027344 C 111.441406 -41.835938 110.679688 -41.265625 109.726562 -40.507812 L 107.445312 -38.605469 L 105.734375 -37.273438 C 105.164062 -36.703125 104.59375 -36.324219 104.785156 -36.324219 C 105.164062 -36.324219 103.453125 -34.800781 102.5 -34.230469 C 101.929688 -33.851562 101.359375 -33.28125 100.980469 -32.898438 C 100.789062 -32.710938 100.601562 -32.519531 100.410156 -32.519531 C 100.21875 -32.519531 100.03125 -32.328125 99.839844 -32.140625 L 91.28125 -25.671875 L 88.808594 -23.769531 C 85.386719 -20.917969 85.578125 -21.109375 82.914062 -19.777344 L 80.632812 -18.257812 C 78.921875 -16.925781 76.636719 -15.402344 71.882812 -12.359375 L 65.988281 -8.558594 C 65.609375 -8.175781 64.277344 -7.417969 63.136719 -6.847656 L 60.472656 -5.324219 C 60.285156 -5.132812 54.386719 -2.09375 53.246094 -1.519531 L 51.917969 -0.761719 C 51.347656 -0.378906 50.585938 -0.191406 47.351562 1.140625 C 37.082031 5.515625 27.195312 7.605469 23.390625 6.085938 Z M 23.390625 6.085938 "/></g></g></g><g fill="#000000" fill-opacity="1"><g transform="translate(364.554571, 200.055544)"><g><path d="M 7.988281 -65.417969 C 8.746094 -65.609375 9.507812 -66.941406 9.316406 -67.699219 C 9.316406 -68.082031 8.9375 -68.460938 8.746094 -68.652344 C 7.988281 -69.222656 7.226562 -68.839844 7.035156 -67.699219 C 7.035156 -67.128906 6.847656 -66.75 6.65625 -66.558594 C 6.085938 -66.179688 7.226562 -65.039062 7.988281 -65.417969 Z M -2.851562 -51.726562 C -0.761719 -51.917969 2.851562 -53.058594 5.894531 -54.386719 L 14.261719 -58.191406 L 16.542969 -59.144531 C 17.117188 -59.523438 17.117188 -60.09375 16.734375 -60.285156 L 16.355469 -60.472656 L 15.972656 -60.472656 L 15.59375 -60.285156 C 7.226562 -56.671875 1.519531 -54.386719 -1.140625 -53.816406 C -1.140625 -53.816406 -2.664062 -53.246094 -3.421875 -53.628906 C -3.421875 -54.386719 -3.234375 -55.148438 -2.664062 -55.910156 L 0.570312 -58.574219 C 2.851562 -60.472656 3.421875 -61.425781 2.472656 -61.804688 C 2.09375 -61.996094 0.570312 -61.425781 -0.761719 -60.472656 C -4.183594 -57.621094 -5.707031 -55.71875 -5.707031 -53.816406 L -5.707031 -53.246094 C -5.707031 -52.105469 -4.753906 -51.535156 -2.851562 -51.726562 Z M -2.851562 -51.726562 "/></g></g></g><g fill="#000000" fill-opacity="1"><g transform="translate(380.528038, 200.055544)"><g><path d="M -2.28125 -51.726562 C 0.378906 -51.726562 4.375 -54.578125 5.324219 -56.101562 L 5.894531 -56.289062 C 7.796875 -55.910156 10.078125 -55.71875 12.550781 -55.71875 C 15.214844 -55.71875 21.300781 -56.480469 25.292969 -58.191406 L 27.003906 -58.953125 C 27.382812 -59.144531 27.574219 -59.523438 27.382812 -59.902344 C 27.195312 -60.285156 26.625 -60.285156 26.433594 -60.09375 C 22.820312 -58.574219 18.636719 -57.050781 12.171875 -57.050781 C 10.648438 -57.050781 9.128906 -57.242188 7.988281 -57.621094 C 7.605469 -57.8125 7.226562 -58 6.464844 -58.191406 L 6.464844 -59.902344 C 6.464844 -60.09375 6.464844 -60.472656 6.277344 -60.664062 C 6.085938 -61.042969 5.515625 -61.425781 4.945312 -61.425781 L 2.472656 -61.613281 L 2.09375 -61.804688 L 0.570312 -61.234375 L -2.664062 -58 C -3.234375 -57.429688 -5.324219 -53.816406 -4.375 -52.296875 C -3.804688 -51.535156 -3.804688 -51.535156 -2.28125 -51.726562 Z M 3.804688 -59.144531 C 3.421875 -59.332031 3.234375 -59.523438 3.613281 -59.523438 C 3.804688 -59.523438 3.992188 -59.332031 4.183594 -59.332031 C 4.183594 -59.144531 4.183594 -58.953125 3.804688 -59.144531 Z M -1.710938 -53.4375 C -1.902344 -53.4375 -2.664062 -54.386719 -0.949219 -56.671875 C 0.191406 -58.191406 0.761719 -58.382812 1.332031 -58.382812 L 2.09375 -57.8125 L 3.234375 -57.242188 C 3.421875 -57.050781 4.183594 -56.859375 1.710938 -54.769531 C 0 -53.246094 -1.519531 -53.4375 -1.710938 -53.4375 Z M -1.710938 -53.4375 "/></g></g></g><g fill="#000000" fill-opacity="1"><g transform="translate(407.150473, 200.055544)"><g><path d="M -0.378906 -48.875 C 0.378906 -48.875 2.664062 -50.773438 3.804688 -52.488281 C 4.183594 -53.058594 6.65625 -55.910156 7.417969 -57.8125 C 7.796875 -58.761719 8.367188 -58.761719 9.128906 -58.761719 C 9.890625 -58.953125 10.078125 -58.382812 10.648438 -58.382812 L 13.882812 -57.621094 L 16.542969 -57.242188 C 18.636719 -56.859375 20.539062 -56.671875 23.011719 -56.671875 L 26.625 -56.671875 C 27.765625 -56.671875 31.566406 -57.242188 32.328125 -57.242188 L 34.421875 -57.621094 C 36.511719 -58.191406 37.84375 -58.761719 37.84375 -59.332031 C 37.082031 -60.285156 37.273438 -59.523438 35.179688 -59.144531 C 34.039062 -58.761719 30.046875 -58 22.25 -58 C 16.925781 -58.191406 13.503906 -59.144531 10.078125 -60.664062 C 7.605469 -61.613281 6.277344 -61.042969 6.464844 -60.664062 C 6.464844 -60.472656 6.085938 -59.144531 5.324219 -57.8125 C 4.375 -55.53125 3.804688 -54.769531 2.09375 -53.058594 C 0.191406 -51.15625 -0.570312 -50.585938 -0.761719 -51.15625 C -1.140625 -52.105469 0 -56.289062 1.332031 -58.953125 C 2.28125 -60.664062 3.234375 -62.757812 2.664062 -63.707031 L 2.472656 -64.277344 C 2.472656 -64.277344 2.09375 -64.277344 1.710938 -64.085938 C 1.519531 -64.085938 0.949219 -63.515625 0.570312 -62.566406 C 0.378906 -62.375 0 -60.472656 -0.191406 -60.285156 C -1.519531 -57.621094 -2.664062 -54.386719 -2.851562 -52.675781 C -3.042969 -50.203125 -2.09375 -48.683594 -0.378906 -48.875 Z M -0.378906 -48.875 "/></g></g></g><g fill="#000000" fill-opacity="1"><g transform="translate(444.992351, 200.055544)"><g><path d="M 4.183594 -51.917969 C 4.945312 -51.726562 5.707031 -51.726562 6.464844 -51.917969 L 7.035156 -51.917969 C 7.035156 -51.917969 10.460938 -52.675781 14.074219 -54.386719 L 24.914062 -59.332031 C 25.292969 -59.523438 25.292969 -60.09375 24.914062 -60.285156 L 24.722656 -60.472656 L 24.152344 -60.472656 L 23.769531 -60.285156 C 15.402344 -56.671875 9.699219 -54.386719 7.226562 -53.816406 C 7.226562 -53.816406 4.753906 -53.058594 4.5625 -53.816406 C 3.804688 -55.53125 5.132812 -57.621094 6.085938 -58.761719 C 6.847656 -59.714844 8.746094 -61.996094 6.464844 -61.996094 C 6.085938 -61.996094 5.515625 -62.1875 5.515625 -62.375 C 5.324219 -63.136719 4.753906 -62.945312 1.519531 -61.234375 C -1.332031 -59.714844 -4.945312 -57.429688 -7.226562 -55.53125 C -8.175781 -54.769531 -8.558594 -54.386719 -8.558594 -53.816406 C -8.558594 -52.867188 -7.988281 -52.675781 -6.847656 -52.675781 C -5.894531 -52.675781 -2.09375 -54.578125 -0.570312 -55.71875 C 0.949219 -57.050781 3.421875 -58.382812 3.421875 -58.191406 L 2.851562 -56.859375 C 2.472656 -56.289062 2.28125 -55.53125 2.28125 -54.960938 C 2.09375 -54.199219 2.09375 -53.628906 2.664062 -52.867188 C 3.042969 -52.296875 3.421875 -51.917969 4.183594 -51.917969 Z M -6.464844 -54.386719 L -5.324219 -55.148438 C -4.183594 -56.289062 -1.140625 -58.382812 1.332031 -59.523438 C 3.234375 -60.664062 3.613281 -60.664062 3.613281 -60.285156 C 3.613281 -60.09375 3.042969 -59.714844 2.472656 -59.523438 C 0.949219 -58.761719 0.191406 -58.191406 -0.191406 -57.8125 C -0.570312 -57.429688 -3.804688 -55.53125 -5.324219 -54.769531 Z M -6.464844 -54.386719 "/></g></g></g><g fill="#000000" fill-opacity="1"><g transform="translate(469.332857, 200.055544)"><g><path d="M 11.21875 -50.964844 L 15.214844 -51.535156 C 18.828125 -52.296875 25.292969 -54.578125 25.292969 -54.578125 L 27.953125 -55.71875 L 30.046875 -56.671875 L 31.1875 -57.242188 C 32.710938 -58 32.898438 -58 34.421875 -58.574219 C 36.511719 -59.332031 37.464844 -59.714844 36.132812 -60.285156 C 35.753906 -60.472656 34.421875 -60.09375 30.425781 -58.382812 C 27.574219 -57.242188 23.582031 -55.71875 21.679688 -55.148438 C 12.550781 -52.296875 7.988281 -51.726562 7.988281 -54.199219 C 7.796875 -54.960938 8.175781 -55.910156 9.507812 -57.242188 C 11.03125 -58.953125 11.03125 -62.1875 8.175781 -60.09375 C 7.796875 -59.714844 6.847656 -59.332031 6.085938 -58.953125 L 0 -56.289062 L 1.332031 -58.382812 C 1.902344 -59.523438 1.902344 -59.523438 1.332031 -60.285156 C 0.570312 -61.234375 -0.191406 -61.042969 -1.519531 -59.144531 L -2.851562 -57.429688 C -3.234375 -56.480469 -4.753906 -54.199219 -5.515625 -53.4375 L -5.515625 -52.867188 C -5.894531 -52.296875 -5.324219 -51.535156 -4.5625 -51.535156 C -4.375 -51.347656 -3.804688 -51.726562 -3.234375 -51.917969 C -1.519531 -53.058594 4.375 -56.289062 6.277344 -57.242188 L 6.464844 -57.242188 L 6.085938 -56.480469 L 6.085938 -56.289062 L 5.707031 -55.71875 C 5.132812 -54.769531 5.515625 -52.488281 6.277344 -51.917969 C 7.417969 -50.964844 9.316406 -50.773438 11.21875 -50.964844 Z M 11.21875 -50.964844 "/></g></g></g><g fill="#000000" fill-opacity="1"><g transform="translate(505.082962, 200.055544)"><g><path d="M 11.21875 -50.964844 L 15.214844 -51.535156 C 18.828125 -52.296875 25.292969 -54.578125 25.292969 -54.578125 L 27.953125 -55.71875 L 30.046875 -56.671875 L 31.1875 -57.242188 C 32.710938 -58 32.898438 -58 34.421875 -58.574219 C 36.511719 -59.332031 37.464844 -59.714844 36.132812 -60.285156 C 35.753906 -60.472656 34.421875 -60.09375 30.425781 -58.382812 C 27.574219 -57.242188 23.582031 -55.71875 21.679688 -55.148438 C 12.550781 -52.296875 7.988281 -51.726562 7.988281 -54.199219 C 7.796875 -54.960938 8.175781 -55.910156 9.507812 -57.242188 C 11.03125 -58.953125 11.03125 -62.1875 8.175781 -60.09375 C 7.796875 -59.714844 6.847656 -59.332031 6.085938 -58.953125 L 0 -56.289062 L 1.332031 -58.382812 C 1.902344 -59.523438 1.902344 -59.523438 1.332031 -60.285156 C 0.570312 -61.234375 -0.191406 -61.042969 -1.519531 -59.144531 L -2.851562 -57.429688 C -3.234375 -56.480469 -4.753906 -54.199219 -5.515625 -53.4375 L -5.515625 -52.867188 C -5.894531 -52.296875 -5.324219 -51.535156 -4.5625 -51.535156 C -4.375 -51.347656 -3.804688 -51.726562 -3.234375 -51.917969 C -1.519531 -53.058594 4.375 -56.289062 6.277344 -57.242188 L 6.464844 -57.242188 L 6.085938 -56.480469 L 6.085938 -56.289062 L 5.707031 -55.71875 C 5.132812 -54.769531 5.515625 -52.488281 6.277344 -51.917969 C 7.417969 -50.964844 9.316406 -50.773438 11.21875 -50.964844 Z M 11.21875 -50.964844 "/></g></g></g><g fill="#000000" fill-opacity="1"><g transform="translate(540.833066, 200.055544)"><g><path d="M 7.988281 -65.417969 C 8.746094 -65.609375 9.507812 -66.941406 9.316406 -67.699219 C 9.316406 -68.082031 8.9375 -68.460938 8.746094 -68.652344 C 7.988281 -69.222656 7.226562 -68.839844 7.035156 -67.699219 C 7.035156 -67.128906 6.847656 -66.75 6.65625 -66.558594 C 6.085938 -66.179688 7.226562 -65.039062 7.988281 -65.417969 Z M -2.851562 -51.726562 C -0.761719 -51.917969 2.851562 -53.058594 5.894531 -54.386719 L 14.261719 -58.191406 L 16.542969 -59.144531 C 17.117188 -59.523438 17.117188 -60.09375 16.734375 -60.285156 L 16.355469 -60.472656 L 15.972656 -60.472656 L 15.59375 -60.285156 C 7.226562 -56.671875 1.519531 -54.386719 -1.140625 -53.816406 C -1.140625 -53.816406 -2.664062 -53.246094 -3.421875 -53.628906 C -3.421875 -54.386719 -3.234375 -55.148438 -2.664062 -55.910156 L 0.570312 -58.574219 C 2.851562 -60.472656 3.421875 -61.425781 2.472656 -61.804688 C 2.09375 -61.996094 0.570312 -61.425781 -0.761719 -60.472656 C -4.183594 -57.621094 -5.707031 -55.71875 -5.707031 -53.816406 L -5.707031 -53.246094 C -5.707031 -52.105469 -4.753906 -51.535156 -2.851562 -51.726562 Z M -2.851562 -51.726562 "/></g></g></g><g fill="#000000" fill-opacity="1"><g transform="translate(497.753102, 299.639512)"><g><path d="M 37.84375 -11.410156 C 40.125 -11.410156 45.449219 -11.980469 47.542969 -12.742188 L 50.394531 -13.503906 C 53.058594 -14.261719 59.523438 -16.925781 61.234375 -17.875 L 64.277344 -19.585938 L 66.558594 -20.917969 L 68.652344 -22.058594 C 69.410156 -22.441406 70.171875 -23.011719 70.554688 -23.390625 L 72.074219 -24.339844 C 72.644531 -24.53125 73.785156 -25.292969 74.546875 -25.863281 L 76.066406 -27.003906 C 76.257812 -27.003906 81.011719 -30.046875 81.203125 -30.425781 C 81.203125 -30.617188 85.007812 -33.089844 87.476562 -34.421875 L 89.949219 -36.132812 L 91.472656 -37.273438 L 94.132812 -39.175781 C 95.464844 -40.125 96.417969 -40.886719 96.605469 -40.886719 C 96.796875 -40.886719 96.988281 -40.886719 97.175781 -41.265625 C 97.175781 -41.457031 98.316406 -42.21875 99.648438 -43.167969 L 103.261719 -45.832031 L 104.972656 -46.972656 C 104.972656 -46.972656 105.355469 -47.164062 105.542969 -47.542969 L 106.683594 -48.492188 L 110.109375 -51.15625 C 116.765625 -56.480469 123.800781 -62.945312 131.40625 -71.125 C 133.878906 -73.976562 136.542969 -76.828125 136.730469 -77.398438 L 137.304688 -77.96875 C 137.683594 -78.351562 140.726562 -82.152344 141.675781 -83.675781 C 143.007812 -85.195312 143.199219 -85.386719 145.101562 -85.765625 C 147.191406 -86.148438 148.332031 -86.335938 149.472656 -86.335938 C 151.945312 -86.527344 155.558594 -86.71875 156.890625 -86.90625 C 159.363281 -87.097656 168.300781 -87.289062 169.820312 -87.097656 C 170.773438 -87.097656 171.152344 -86.90625 171.152344 -86.527344 C 171.152344 -85.765625 172.105469 -85.195312 172.675781 -85.578125 C 173.246094 -85.957031 174.195312 -86.90625 174.574219 -87.476562 C 174.957031 -88.046875 174.195312 -89 173.246094 -89.378906 C 171.722656 -89.570312 161.644531 -89.378906 159.550781 -88.808594 C 158.792969 -88.621094 153.65625 -88.429688 148.140625 -88.046875 C 146.621094 -88.046875 145.101562 -87.859375 144.910156 -87.667969 C 144.71875 -87.667969 144.527344 -87.859375 144.71875 -88.046875 C 144.71875 -88.238281 144.910156 -88.238281 145.101562 -88.238281 C 145.289062 -88.238281 145.289062 -88.429688 145.289062 -88.621094 C 145.101562 -89 145.480469 -89.570312 147.953125 -93.5625 C 151.945312 -100.21875 152.707031 -103.453125 151.183594 -106.496094 C 150.804688 -107.445312 150.234375 -108.015625 149.09375 -108.585938 C 148.332031 -108.96875 147 -109.347656 146.429688 -109.539062 C 145.480469 -109.726562 145.480469 -109.726562 145.859375 -110.109375 C 146.242188 -110.296875 146.621094 -110.488281 146.8125 -110.488281 C 147.191406 -110.488281 147.382812 -110.679688 147.382812 -110.867188 C 147.382812 -111.058594 147.570312 -111.058594 147.570312 -110.867188 C 147.761719 -110.867188 148.140625 -111.058594 148.523438 -111.25 C 149.285156 -111.820312 155.558594 -114.671875 155.9375 -114.671875 C 156.128906 -114.671875 156.320312 -114.863281 156.699219 -115.242188 C 158.03125 -116.195312 166.398438 -120.566406 168.492188 -121.136719 C 170.773438 -121.898438 171.152344 -123.992188 169.25 -124.5625 C 167.921875 -124.941406 164.117188 -124.5625 161.265625 -123.992188 L 157.839844 -123.230469 L 156.699219 -123.230469 L 156.511719 -123.039062 L 155.9375 -122.851562 L 151.183594 -121.519531 C 150.234375 -120.949219 147.570312 -120.378906 147.570312 -120.378906 C 147.382812 -120.566406 147.761719 -120.949219 148.332031 -121.328125 L 150.804688 -123.609375 C 151.753906 -124.371094 152.515625 -125.132812 152.707031 -125.132812 L 153.847656 -126.273438 C 154.609375 -126.84375 155.558594 -127.414062 156.128906 -127.605469 C 157.839844 -128.175781 158.601562 -128.933594 158.601562 -130.078125 C 158.410156 -130.835938 158.03125 -131.40625 157.269531 -131.21875 L 153.46875 -130.835938 C 151.566406 -130.648438 148.714844 -130.457031 147.191406 -130.457031 L 140.535156 -130.078125 L 106.304688 -129.503906 L 100.410156 -129.316406 C 92.042969 -128.933594 86.90625 -128.554688 83.675781 -128.175781 C 73.023438 -127.035156 64.65625 -125.890625 59.332031 -124.75 L 57.429688 -124.371094 C 55.910156 -124.179688 49.632812 -122.28125 47.734375 -121.328125 C 43.738281 -119.808594 38.605469 -116.765625 37.652344 -115.433594 C 36.894531 -114.671875 36.894531 -112.011719 37.652344 -111.820312 C 38.222656 -111.441406 38.414062 -111.628906 38.792969 -112.960938 C 38.984375 -113.722656 39.554688 -114.480469 40.125 -115.054688 C 41.078125 -115.8125 46.019531 -118.667969 46.402344 -118.667969 C 46.589844 -118.667969 47.734375 -119.046875 48.875 -119.617188 C 51.917969 -121.136719 55.71875 -122.28125 60.472656 -123.230469 L 66.941406 -124.371094 C 68.082031 -124.75 70.363281 -124.941406 72.453125 -125.132812 C 74.355469 -125.320312 76.257812 -125.703125 76.636719 -125.703125 C 77.019531 -125.890625 78.351562 -126.082031 79.492188 -126.082031 C 81.964844 -126.273438 85.957031 -126.652344 87.289062 -127.035156 C 87.859375 -127.222656 88.429688 -127.222656 88.808594 -127.222656 C 89.191406 -127.035156 90.140625 -127.035156 90.902344 -127.222656 L 98.507812 -127.605469 L 144.148438 -128.363281 L 147.761719 -128.554688 C 149.285156 -128.746094 151.183594 -128.746094 151.566406 -128.554688 L 152.515625 -128.363281 L 146.429688 -122.851562 C 145.859375 -122.28125 145.289062 -121.898438 145.289062 -121.898438 C 145.101562 -121.898438 144.71875 -121.707031 144.527344 -121.136719 C 143.199219 -119.617188 141.105469 -117.714844 139.773438 -117.144531 C 136.730469 -115.8125 135.78125 -114.671875 136.351562 -113.910156 C 136.730469 -113.722656 135.402344 -112.199219 130.078125 -106.875 C 126.464844 -103.261719 123.039062 -99.457031 122.28125 -98.699219 C 121.328125 -97.558594 120.1875 -96.417969 119.617188 -96.035156 C 119.425781 -95.65625 119.238281 -95.273438 118.667969 -95.085938 C 118.285156 -94.132812 116.765625 -92.613281 110.109375 -85.957031 C 104.023438 -79.679688 103.832031 -79.492188 102.121094 -79.109375 L 100.21875 -78.539062 L 99.457031 -78.160156 C 97.558594 -77.589844 93.375 -76.257812 93.375 -76.449219 C 93.183594 -76.636719 92.992188 -76.449219 92.804688 -76.257812 C 92.421875 -76.066406 91.660156 -75.6875 91.089844 -75.496094 L 89 -74.925781 L 88.238281 -74.546875 L 84.625 -73.023438 L 79.109375 -70.933594 C 76.636719 -69.984375 64.847656 -64.085938 62.945312 -62.757812 L 62.1875 -62.1875 C 61.996094 -62.1875 53.628906 -56.859375 51.726562 -55.53125 L 44.878906 -50.394531 C 41.648438 -47.921875 39.554688 -46.210938 38.605469 -45.261719 L 33.28125 -40.695312 C 28.90625 -36.703125 23.960938 -31.566406 21.488281 -27.765625 C 19.96875 -25.671875 19.015625 -23.011719 19.015625 -20.730469 C 19.015625 -18.257812 19.398438 -16.164062 19.585938 -16.355469 C 19.777344 -16.542969 19.96875 -16.355469 19.96875 -16.164062 C 19.96875 -15.59375 21.488281 -13.882812 23.199219 -12.929688 C 25.101562 -11.980469 29.097656 -11.410156 37.84375 -11.410156 Z M 134.832031 -107.636719 C 134.449219 -107.636719 136.542969 -109.726562 140.726562 -113.722656 L 142.246094 -115.433594 C 142.816406 -116.003906 143.386719 -116.574219 143.769531 -116.574219 L 145.480469 -117.335938 C 146.621094 -117.90625 150.425781 -119.238281 152.898438 -119.996094 L 155.367188 -120.757812 L 161.265625 -122.28125 L 163.546875 -122.46875 L 165.449219 -122.851562 L 166.96875 -122.851562 L 163.925781 -121.136719 L 160.3125 -119.425781 C 158.03125 -117.90625 155.179688 -116.382812 154.988281 -116.382812 C 154.796875 -116.382812 153.085938 -115.433594 150.804688 -114.480469 C 147.191406 -112.582031 140.726562 -109.539062 139.585938 -108.96875 C 138.445312 -108.585938 135.210938 -107.636719 134.832031 -107.636719 Z M 110.109375 -81.582031 C 109.726562 -81.394531 109.539062 -81.394531 109.917969 -81.964844 C 109.917969 -82.152344 110.488281 -82.722656 110.867188 -83.105469 C 112.582031 -84.625 122.851562 -95.273438 124.371094 -97.175781 C 127.222656 -100.410156 129.503906 -102.5 129.886719 -102.5 C 130.265625 -102.5 130.457031 -102.691406 130.457031 -102.882812 C 130.835938 -103.453125 137.113281 -106.113281 138.632812 -106.304688 L 139.773438 -106.683594 C 141.675781 -107.445312 146.429688 -107.445312 147.570312 -106.683594 C 148.332031 -105.925781 148.902344 -104.785156 148.902344 -103.832031 L 148.714844 -102.691406 C 148.714844 -101.929688 148.523438 -101.359375 147.570312 -99.457031 C 147.191406 -98.699219 146.8125 -97.746094 146.8125 -97.558594 C 146.8125 -97.367188 146.621094 -97.175781 146.429688 -97.175781 C 146.242188 -96.988281 146.050781 -96.796875 146.050781 -96.605469 C 146.050781 -96.226562 145.480469 -95.273438 144.910156 -94.132812 L 143.386719 -91.089844 C 142.4375 -89.191406 140.914062 -87.097656 140.34375 -86.90625 L 134.070312 -85.957031 L 129.695312 -85.195312 L 116.382812 -82.722656 L 115.433594 -82.535156 C 115.054688 -82.34375 113.339844 -81.964844 111.820312 -81.773438 Z M 41.265625 -12.929688 C 39.554688 -12.550781 29.097656 -12.742188 26.8125 -13.121094 C 25.101562 -13.503906 22.820312 -14.453125 22.25 -15.214844 C 21.109375 -16.542969 20.539062 -18.257812 20.539062 -20.347656 C 20.347656 -23.199219 21.300781 -25.292969 23.960938 -28.90625 C 25.292969 -30.808594 32.898438 -38.605469 33.28125 -38.605469 C 33.660156 -38.605469 33.660156 -38.792969 33.660156 -38.984375 C 33.660156 -39.175781 36.894531 -42.21875 39.554688 -44.308594 C 44.121094 -47.921875 46.019531 -49.445312 46.402344 -49.632812 L 47.734375 -50.773438 C 48.875 -51.726562 58.574219 -58.574219 58.953125 -58.574219 L 61.425781 -60.09375 C 62.566406 -61.042969 63.707031 -61.613281 63.898438 -61.613281 C 64.085938 -61.613281 64.46875 -61.996094 64.847656 -62.1875 C 65.417969 -62.757812 67.699219 -63.898438 73.023438 -66.75 C 75.117188 -67.699219 77.96875 -69.03125 78.351562 -69.03125 C 78.539062 -69.03125 78.921875 -69.222656 79.300781 -69.410156 C 80.820312 -70.171875 84.433594 -71.882812 84.816406 -71.882812 C 85.007812 -71.882812 85.386719 -71.882812 85.578125 -72.074219 C 86.148438 -72.453125 92.234375 -74.546875 93.753906 -74.925781 L 97.9375 -76.257812 L 100.03125 -76.828125 C 100.410156 -77.019531 100.980469 -77.019531 100.980469 -76.828125 C 101.171875 -76.828125 100.03125 -75.496094 98.699219 -73.976562 L 94.703125 -69.601562 L 92.992188 -67.511719 L 91.851562 -65.988281 C 91.28125 -65.226562 90.710938 -64.65625 90.710938 -64.46875 L 89.378906 -63.136719 C 88.808594 -62.375 87.097656 -60.285156 85.195312 -58.382812 L 80.632812 -53.628906 C 77.398438 -50.015625 75.117188 -47.542969 74.738281 -47.734375 C 74.738281 -47.542969 73.597656 -46.019531 72.074219 -44.5 C 70.554688 -42.976562 69.222656 -41.457031 69.222656 -41.078125 C 69.222656 -39.175781 70.554688 -38.414062 71.695312 -39.554688 C 74.167969 -42.40625 74.925781 -43.167969 75.496094 -43.738281 L 77.019531 -45.261719 L 89.378906 -58.761719 C 91.851562 -61.425781 91.660156 -61.425781 93.5625 -63.707031 C 96.988281 -68.269531 97.746094 -69.03125 100.21875 -71.695312 C 105.925781 -78.160156 106.496094 -78.539062 107.828125 -78.921875 L 111.25 -79.871094 C 113.152344 -80.25 114.292969 -80.632812 114.480469 -80.820312 C 114.863281 -81.011719 118.09375 -81.773438 120.378906 -82.152344 L 127.035156 -83.484375 L 131.21875 -84.054688 C 136.730469 -85.007812 139.015625 -85.386719 139.394531 -85.195312 C 139.394531 -85.007812 139.394531 -84.816406 139.203125 -84.625 L 138.253906 -83.292969 L 137.492188 -82.152344 L 132.546875 -76.066406 L 131.789062 -75.308594 C 130.265625 -73.023438 114.292969 -56.671875 113.722656 -56.671875 L 112.582031 -55.53125 C 111.058594 -54.199219 106.496094 -50.394531 104.402344 -49.0625 L 102.3125 -47.351562 L 98.507812 -44.308594 L 94.324219 -41.457031 L 86.148438 -35.5625 C 84.816406 -34.800781 83.863281 -34.039062 83.675781 -34.039062 L 81.582031 -32.710938 L 79.109375 -30.996094 L 74.738281 -28.144531 L 72.644531 -26.625 L 70.171875 -25.101562 L 69.222656 -24.53125 C 68.839844 -24.53125 68.652344 -24.339844 68.652344 -24.152344 C 68.652344 -23.960938 68.652344 -23.960938 68.460938 -23.960938 C 68.082031 -23.960938 66.371094 -22.820312 65.609375 -22.058594 C 65.417969 -21.871094 63.898438 -21.109375 62.375 -20.347656 L 59.332031 -18.828125 C 59.332031 -18.636719 57.429688 -17.875 57.242188 -17.875 L 55.71875 -17.117188 C 52.675781 -15.785156 47.542969 -14.074219 44.121094 -13.503906 Z M 41.265625 -12.929688 "/></g></g></g><g fill="#000000" fill-opacity="1"><g transform="translate(628.773481, 299.639512)"><g><path d="M -8.367188 -39.175781 C -8.175781 -39.175781 -7.988281 -40.125 -7.605469 -42.21875 C -7.226562 -45.640625 -6.085938 -48.113281 -3.234375 -52.296875 C -0.761719 -56.101562 6.65625 -65.609375 7.035156 -65.609375 C 7.226562 -65.796875 7.417969 -65.988281 7.417969 -66.179688 C 7.796875 -66.558594 8.175781 -66.75 8.558594 -66.941406 L 11.980469 -69.222656 C 13.691406 -70.171875 14.074219 -70.363281 15.59375 -71.503906 L 17.304688 -72.644531 C 17.496094 -72.644531 19.398438 -73.785156 20.539062 -74.738281 C 21.871094 -75.6875 25.484375 -77.96875 26.054688 -78.351562 L 27.953125 -79.679688 L 30.046875 -81.203125 L 32.519531 -83.105469 L 37.273438 -86.90625 C 40.125 -89 46.78125 -94.894531 47.164062 -96.605469 C 47.542969 -98.128906 46.402344 -98.886719 44.308594 -98.128906 C 42.21875 -97.558594 39.363281 -95.84375 37.84375 -94.703125 C 36.132812 -93.5625 33.851562 -92.421875 32.140625 -91.089844 C 27.195312 -87.476562 22.058594 -83.484375 17.117188 -79.109375 C 15.023438 -77.210938 10.648438 -73.023438 9.699219 -72.265625 L 5.894531 -68.460938 C 5.515625 -68.269531 5.324219 -68.269531 5.324219 -68.269531 C 5.132812 -68.460938 4.945312 -68.269531 4.945312 -68.269531 C 4.945312 -67.890625 2.851562 -67.320312 2.472656 -67.511719 C 2.28125 -67.699219 2.09375 -67.511719 2.09375 -67.320312 C 2.09375 -66.941406 3.042969 -65.988281 3.421875 -65.988281 L 3.804688 -65.988281 C 3.234375 -65.417969 3.042969 -65.039062 3.042969 -64.847656 L 2.28125 -63.898438 C 1.710938 -63.328125 1.332031 -62.945312 1.332031 -62.757812 C 1.332031 -62.566406 1.332031 -62.375 1.140625 -62.375 C 0.949219 -62.375 0.378906 -61.613281 -0.378906 -60.664062 L -1.902344 -58.761719 C -2.09375 -58.761719 -2.09375 -58.382812 -2.09375 -58.191406 C -2.28125 -57.8125 -2.472656 -57.621094 -2.664062 -57.621094 L -3.234375 -57.050781 C -3.234375 -56.671875 -3.234375 -56.671875 -3.421875 -56.671875 C -3.613281 -56.671875 -3.804688 -56.480469 -3.804688 -56.289062 C -3.804688 -55.910156 -3.992188 -55.71875 -4.183594 -55.71875 C -4.183594 -55.910156 -4.375 -55.71875 -4.375 -55.53125 C -4.375 -55.148438 -5.515625 -53.4375 -6.464844 -52.105469 C -7.226562 -50.964844 -7.417969 -50.394531 -7.605469 -50.015625 C -7.605469 -49.632812 -7.796875 -49.253906 -7.988281 -48.683594 C -8.9375 -47.351562 -9.699219 -43.929688 -9.316406 -41.835938 C -9.128906 -39.746094 -8.9375 -39.363281 -8.367188 -39.175781 Z M 12.359375 -71.3125 C 11.789062 -71.125 12.171875 -71.3125 13.691406 -73.023438 C 15.402344 -74.925781 25.101562 -83.292969 25.484375 -83.292969 L 32.328125 -88.808594 L 35.179688 -90.710938 L 36.703125 -92.042969 L 37.84375 -92.804688 L 40.886719 -94.703125 L 42.21875 -95.464844 L 43.167969 -96.035156 L 43.550781 -96.226562 C 43.738281 -96.417969 43.929688 -96.417969 44.308594 -96.417969 C 44.5 -96.605469 44.691406 -96.417969 44.691406 -96.035156 C 44.691406 -96.035156 44.691406 -95.84375 44.5 -95.65625 L 44.121094 -95.273438 L 44.121094 -95.085938 L 43.550781 -94.703125 L 43.359375 -94.515625 L 42.976562 -93.945312 L 42.40625 -93.375 L 39.746094 -90.902344 L 36.132812 -88.046875 C 34.609375 -86.71875 33.46875 -85.765625 33.28125 -85.765625 L 32.140625 -85.007812 C 30.617188 -83.675781 26.242188 -80.632812 25.484375 -80.0625 C 24.722656 -79.679688 22.441406 -78.160156 21.679688 -77.589844 C 20.539062 -76.636719 17.496094 -74.355469 16.734375 -73.976562 L 15.972656 -73.40625 Z M 12.359375 -71.3125 "/></g></g></g><g fill="#000000" fill-opacity="1"><g transform="translate(645.50758, 299.639512)"><g><path d="M -2.28125 -51.726562 C 0.378906 -51.726562 4.375 -54.578125 5.324219 -56.101562 L 5.894531 -56.289062 C 7.796875 -55.910156 10.078125 -55.71875 12.550781 -55.71875 C 15.214844 -55.71875 21.300781 -56.480469 25.292969 -58.191406 L 27.003906 -58.953125 C 27.382812 -59.144531 27.574219 -59.523438 27.382812 -59.902344 C 27.195312 -60.285156 26.625 -60.285156 26.433594 -60.09375 C 22.820312 -58.574219 18.636719 -57.050781 12.171875 -57.050781 C 10.648438 -57.050781 9.128906 -57.242188 7.988281 -57.621094 C 7.605469 -57.8125 7.226562 -58 6.464844 -58.191406 L 6.464844 -59.902344 C 6.464844 -60.09375 6.464844 -60.472656 6.277344 -60.664062 C 6.085938 -61.042969 5.515625 -61.425781 4.945312 -61.425781 L 2.472656 -61.613281 L 2.09375 -61.804688 L 0.570312 -61.234375 L -2.664062 -58 C -3.234375 -57.429688 -5.324219 -53.816406 -4.375 -52.296875 C -3.804688 -51.535156 -3.804688 -51.535156 -2.28125 -51.726562 Z M 3.804688 -59.144531 C 3.421875 -59.332031 3.234375 -59.523438 3.613281 -59.523438 C 3.804688 -59.523438 3.992188 -59.332031 4.183594 -59.332031 C 4.183594 -59.144531 4.183594 -58.953125 3.804688 -59.144531 Z M -1.710938 -53.4375 C -1.902344 -53.4375 -2.664062 -54.386719 -0.949219 -56.671875 C 0.191406 -58.191406 0.761719 -58.382812 1.332031 -58.382812 L 2.09375 -57.8125 L 3.234375 -57.242188 C 3.421875 -57.050781 4.183594 -56.859375 1.710938 -54.769531 C 0 -53.246094 -1.519531 -53.4375 -1.710938 -53.4375 Z M -1.710938 -53.4375 "/></g></g></g><g fill="#000000" fill-opacity="1"><g transform="translate(672.130004, 299.639512)"><g><path d="M 6.464844 -44.878906 C 6.65625 -44.691406 7.035156 -44.691406 7.226562 -44.878906 L 7.796875 -45.070312 L 8.175781 -45.261719 L 8.746094 -46.210938 C 9.699219 -48.113281 10.078125 -48.875 12.359375 -54.007812 C 12.929688 -55.148438 13.882812 -56.859375 13.882812 -57.621094 C 14.074219 -58.191406 13.882812 -58.574219 13.882812 -58.761719 L 14.644531 -58.761719 C 15.214844 -58.953125 15.59375 -58.382812 16.164062 -58.382812 L 19.398438 -57.621094 L 22.058594 -57.242188 C 23.960938 -56.859375 25.863281 -56.671875 28.335938 -56.671875 L 31.949219 -56.671875 C 33.089844 -56.671875 35.371094 -56.859375 37.652344 -57.242188 L 40.886719 -58 L 42.789062 -58.761719 C 43.167969 -58.953125 43.550781 -59.332031 42.976562 -60.09375 C 42.789062 -60.285156 42.976562 -60.09375 41.078125 -59.523438 C 39.746094 -59.144531 39.363281 -58.953125 37.273438 -58.574219 C 35.179688 -58.191406 31.949219 -58 27.765625 -58 C 22.25 -58.191406 19.015625 -59.144531 15.402344 -60.664062 C 14.261719 -61.042969 13.3125 -61.234375 12.742188 -61.234375 C 12.359375 -61.234375 12.171875 -61.234375 11.980469 -60.855469 C 11.789062 -60.855469 11.789062 -60.664062 11.789062 -60.664062 L 11.789062 -59.144531 C 11.789062 -58.574219 11.601562 -57.242188 11.21875 -56.289062 C 10.648438 -54.386719 7.417969 -47.734375 7.035156 -47.734375 C 6.464844 -47.734375 5.707031 -51.347656 5.707031 -53.816406 C 5.894531 -55.339844 5.515625 -55.910156 4.753906 -56.101562 C 3.613281 -56.289062 2.664062 -55.71875 1.332031 -54.199219 C -0.191406 -51.917969 -1.332031 -50.773438 -1.519531 -50.773438 C -2.09375 -50.773438 -0.570312 -56.289062 0.570312 -58 C 1.902344 -60.472656 1.902344 -61.613281 0.191406 -61.425781 C -0.378906 -61.425781 -0.761719 -61.042969 -1.332031 -59.523438 C -2.28125 -57.429688 -3.421875 -53.246094 -3.804688 -51.535156 C -3.804688 -50.394531 -3.804688 -50.203125 -3.234375 -49.445312 C -2.472656 -48.875 -2.28125 -48.683594 -1.332031 -48.875 C -0.191406 -48.875 0.570312 -50.203125 1.902344 -51.535156 C 2.472656 -52.296875 3.234375 -53.4375 3.421875 -53.4375 C 3.613281 -53.4375 3.992188 -52.105469 3.804688 -51.726562 C 3.804688 -51.347656 4.5625 -46.78125 5.894531 -45.449219 Z M 6.464844 -44.878906 "/></g></g></g><g fill="#000000" fill-opacity="1"><g transform="translate(727.016558, 323.830378)"><g><path d="M 11 0 L 8.578125 0 L 7.21875 -5.25 C 7.175781 -5.4375 7.09375 -5.820312 6.96875 -6.40625 C 6.84375 -6.988281 6.773438 -7.382812 6.765625 -7.59375 C 6.734375 -7.34375 6.660156 -6.941406 6.546875 -6.390625 C 6.441406 -5.847656 6.359375 -5.460938 6.296875 -5.234375 L 4.953125 0 L 2.546875 0 L 0 -10 L 2.078125 -10 L 3.359375 -4.546875 C 3.585938 -3.535156 3.75 -2.660156 3.84375 -1.921875 C 3.875 -2.179688 3.9375 -2.582031 4.03125 -3.125 C 4.132812 -3.664062 4.226562 -4.085938 4.3125 -4.390625 L 5.765625 -10 L 7.765625 -10 L 9.234375 -4.390625 C 9.296875 -4.140625 9.375 -3.753906 9.46875 -3.234375 C 9.5625 -2.722656 9.632812 -2.285156 9.6875 -1.921875 C 9.726562 -2.273438 9.800781 -2.71875 9.90625 -3.25 C 10.007812 -3.78125 10.097656 -4.210938 10.171875 -4.546875 L 11.453125 -10 L 13.53125 -10 Z M 11 0 "/></g></g></g><g fill="#000000" fill-opacity="1"><g transform="translate(747.544248, 323.830378)"><g><path d="M 7.015625 0 L 1.265625 0 L 1.265625 -10 L 7.015625 -10 L 7.015625 -8.265625 L 3.375 -8.265625 L 3.375 -6.0625 L 6.765625 -6.0625 L 6.765625 -4.328125 L 3.375 -4.328125 L 3.375 -1.75 L 7.015625 -1.75 Z M 7.015625 0 "/></g></g></g><g fill="#000000" fill-opacity="1"><g transform="translate(762.380779, 323.830378)"><g><path d="M 1.265625 -10 L 4.375 -10 C 5.789062 -10 6.816406 -9.796875 7.453125 -9.390625 C 8.097656 -8.984375 8.421875 -8.34375 8.421875 -7.46875 C 8.421875 -6.863281 8.28125 -6.367188 8 -5.984375 C 7.71875 -5.609375 7.34375 -5.382812 6.875 -5.3125 L 6.875 -5.234375 C 7.507812 -5.097656 7.96875 -4.832031 8.25 -4.4375 C 8.53125 -4.050781 8.671875 -3.539062 8.671875 -2.90625 C 8.671875 -1.988281 8.335938 -1.273438 7.671875 -0.765625 C 7.015625 -0.253906 6.125 0 5 0 L 1.265625 0 Z M 3.375 -6.03125 L 4.609375 -6.03125 C 5.179688 -6.03125 5.59375 -6.117188 5.84375 -6.296875 C 6.101562 -6.472656 6.234375 -6.769531 6.234375 -7.1875 C 6.234375 -7.570312 6.09375 -7.847656 5.8125 -8.015625 C 5.539062 -8.179688 5.097656 -8.265625 4.484375 -8.265625 L 3.375 -8.265625 Z M 3.375 -4.359375 L 3.375 -1.75 L 4.765625 -1.75 C 5.347656 -1.75 5.773438 -1.859375 6.046875 -2.078125 C 6.328125 -2.304688 6.46875 -2.648438 6.46875 -3.109375 C 6.46875 -3.941406 5.875 -4.359375 4.6875 -4.359375 Z M 3.375 -4.359375 "/></g></g></g><g fill="#000000" fill-opacity="1"><g transform="translate(778.781866, 323.830378)"><g/></g></g><g fill="#000000" fill-opacity="1"><g transform="translate(789.416643, 323.830378)"><g><path d="M 9.546875 -5.09375 C 9.546875 -3.445312 9.078125 -2.1875 8.140625 -1.3125 C 7.203125 -0.4375 5.851562 0 4.09375 0 L 1.265625 0 L 1.265625 -10 L 4.390625 -10 C 6.023438 -10 7.289062 -9.566406 8.1875 -8.703125 C 9.09375 -7.835938 9.546875 -6.632812 9.546875 -5.09375 Z M 7.34375 -5.03125 C 7.34375 -7.1875 6.394531 -8.265625 4.5 -8.265625 L 3.375 -8.265625 L 3.375 -1.75 L 4.28125 -1.75 C 6.320312 -1.75 7.34375 -2.84375 7.34375 -5.03125 Z M 7.34375 -5.03125 "/></g></g></g><g fill="#000000" fill-opacity="1"><g transform="translate(806.774228, 323.830378)"><g><path d="M 7.015625 0 L 1.265625 0 L 1.265625 -10 L 7.015625 -10 L 7.015625 -8.265625 L 3.375 -8.265625 L 3.375 -6.0625 L 6.765625 -6.0625 L 6.765625 -4.328125 L 3.375 -4.328125 L 3.375 -1.75 L 7.015625 -1.75 Z M 7.015625 0 "/></g></g></g><g fill="#000000" fill-opacity="1"><g transform="translate(821.610759, 323.830378)"><g><path d="M 6.953125 -10 L 9.09375 -10 L 5.703125 0 L 3.390625 0 L 0 -10 L 2.140625 -10 L 4.015625 -4.046875 C 4.117188 -3.691406 4.226562 -3.28125 4.34375 -2.8125 C 4.457031 -2.351562 4.523438 -2.03125 4.546875 -1.84375 C 4.597656 -2.257812 4.769531 -2.992188 5.0625 -4.046875 Z M 6.953125 -10 "/></g></g></g><g fill="#000000" fill-opacity="1"><g transform="translate(837.704401, 323.830378)"><g><path d="M 7.015625 0 L 1.265625 0 L 1.265625 -10 L 7.015625 -10 L 7.015625 -8.265625 L 3.375 -8.265625 L 3.375 -6.0625 L 6.765625 -6.0625 L 6.765625 -4.328125 L 3.375 -4.328125 L 3.375 -1.75 L 7.015625 -1.75 Z M 7.015625 0 "/></g></g></g><g fill="#000000" fill-opacity="1"><g transform="translate(852.540932, 323.830378)"><g><path d="M 1.265625 0 L 1.265625 -10 L 3.375 -10 L 3.375 -1.75 L 7.4375 -1.75 L 7.4375 0 Z M 1.265625 0 "/></g></g></g><g fill="#000000" fill-opacity="1"><g transform="translate(867.445785, 323.830378)"><g><path d="M 10.328125 -5.015625 C 10.328125 -3.359375 9.914062 -2.082031 9.09375 -1.1875 C 8.28125 -0.300781 7.109375 0.140625 5.578125 0.140625 C 4.046875 0.140625 2.867188 -0.300781 2.046875 -1.1875 C 1.222656 -2.082031 0.8125 -3.363281 0.8125 -5.03125 C 0.8125 -6.6875 1.222656 -7.953125 2.046875 -8.828125 C 2.867188 -9.710938 4.046875 -10.15625 5.578125 -10.15625 C 7.117188 -10.15625 8.296875 -9.710938 9.109375 -8.828125 C 9.921875 -7.941406 10.328125 -6.671875 10.328125 -5.015625 Z M 3.03125 -5.015625 C 3.03125 -3.898438 3.242188 -3.054688 3.671875 -2.484375 C 4.097656 -1.921875 4.734375 -1.640625 5.578125 -1.640625 C 7.265625 -1.640625 8.109375 -2.765625 8.109375 -5.015625 C 8.109375 -7.265625 7.265625 -8.390625 5.578125 -8.390625 C 4.742188 -8.390625 4.109375 -8.101562 3.671875 -7.53125 C 3.242188 -6.96875 3.03125 -6.128906 3.03125 -5.015625 Z M 3.03125 -5.015625 "/></g></g></g><g fill="#000000" fill-opacity="1"><g transform="translate(885.582232, 323.830378)"><g><path d="M 3.375 -5.296875 L 4.078125 -5.296875 C 4.722656 -5.296875 5.207031 -5.421875 5.53125 -5.671875 C 5.851562 -5.929688 6.015625 -6.304688 6.015625 -6.796875 C 6.015625 -7.296875 5.878906 -7.664062 5.609375 -7.90625 C 5.335938 -8.144531 4.914062 -8.265625 4.34375 -8.265625 L 3.375 -8.265625 Z M 8.15625 -6.875 C 8.15625 -5.800781 7.816406 -4.976562 7.140625 -4.40625 C 6.472656 -3.84375 5.519531 -3.5625 4.28125 -3.5625 L 3.375 -3.5625 L 3.375 0 L 1.265625 0 L 1.265625 -10 L 4.453125 -10 C 5.660156 -10 6.578125 -9.734375 7.203125 -9.203125 C 7.835938 -8.679688 8.15625 -7.90625 8.15625 -6.875 Z M 8.15625 -6.875 "/></g></g></g><g fill="#000000" fill-opacity="1"><g transform="translate(901.368429, 323.830378)"><g><path d="M 5.484375 0 L 3.078125 -7.84375 L 3.015625 -7.84375 C 3.109375 -6.25 3.15625 -5.1875 3.15625 -4.65625 L 3.15625 0 L 1.265625 0 L 1.265625 -10 L 4.140625 -10 L 6.515625 -2.359375 L 6.546875 -2.359375 L 9.0625 -10 L 11.9375 -10 L 11.9375 0 L 9.96875 0 L 9.96875 -4.734375 C 9.96875 -4.953125 9.96875 -5.207031 9.96875 -5.5 C 9.976562 -5.789062 10.007812 -6.566406 10.0625 -7.828125 L 10.015625 -7.828125 L 7.4375 0 Z M 5.484375 0 "/></g></g></g><g fill="#000000" fill-opacity="1"><g transform="translate(921.561344, 323.830378)"><g><path d="M 7.015625 0 L 1.265625 0 L 1.265625 -10 L 7.015625 -10 L 7.015625 -8.265625 L 3.375 -8.265625 L 3.375 -6.0625 L 6.765625 -6.0625 L 6.765625 -4.328125 L 3.375 -4.328125 L 3.375 -1.75 L 7.015625 -1.75 Z M 7.015625 0 "/></g></g></g><g fill="#000000" fill-opacity="1"><g transform="translate(936.397876, 323.830378)"><g><path d="M 10.125 0 L 7.4375 0 L 3.078125 -7.5625 L 3.015625 -7.5625 C 3.109375 -6.226562 3.15625 -5.273438 3.15625 -4.703125 L 3.15625 0 L 1.265625 0 L 1.265625 -10 L 3.9375 -10 L 8.265625 -2.515625 L 8.3125 -2.515625 C 8.25 -3.804688 8.21875 -4.722656 8.21875 -5.265625 L 8.21875 -10 L 10.125 -10 Z M 10.125 0 "/></g></g></g><g fill="#000000" fill-opacity="1"><g transform="translate(954.773447, 323.830378)"><g><path d="M 5.109375 0 L 3 0 L 3 -8.234375 L 0.28125 -8.234375 L 0.28125 -10 L 7.828125 -10 L 7.828125 -8.234375 L 5.109375 -8.234375 Z M 5.109375 0 "/></g></g></g><g fill="#000000" fill-opacity="1"><g transform="translate(969.87642, 323.830378)"><g/></g></g><g fill="#000000" fill-opacity="1"><g transform="translate(980.511185, 323.830378)"><g><path d="M 10.5 0 L 7.921875 0 L 7.140625 -0.765625 C 6.265625 -0.160156 5.28125 0.140625 4.1875 0.140625 C 3.070312 0.140625 2.1875 -0.113281 1.53125 -0.625 C 0.882812 -1.132812 0.5625 -1.828125 0.5625 -2.703125 C 0.5625 -3.328125 0.695312 -3.859375 0.96875 -4.296875 C 1.25 -4.734375 1.722656 -5.144531 2.390625 -5.53125 C 2.046875 -5.925781 1.796875 -6.300781 1.640625 -6.65625 C 1.492188 -7.007812 1.421875 -7.398438 1.421875 -7.828125 C 1.421875 -8.515625 1.6875 -9.070312 2.21875 -9.5 C 2.75 -9.925781 3.457031 -10.140625 4.34375 -10.140625 C 5.1875 -10.140625 5.863281 -9.941406 6.375 -9.546875 C 6.882812 -9.148438 7.140625 -8.625 7.140625 -7.96875 C 7.140625 -7.425781 6.976562 -6.925781 6.65625 -6.46875 C 6.34375 -6.019531 5.835938 -5.597656 5.140625 -5.203125 L 7.078125 -3.296875 C 7.398438 -3.835938 7.679688 -4.523438 7.921875 -5.359375 L 10.09375 -5.359375 C 9.925781 -4.742188 9.695312 -4.144531 9.40625 -3.5625 C 9.125 -2.976562 8.800781 -2.457031 8.4375 -2 Z M 2.75 -2.90625 C 2.75 -2.507812 2.894531 -2.191406 3.1875 -1.953125 C 3.488281 -1.722656 3.867188 -1.609375 4.328125 -1.609375 C 4.898438 -1.609375 5.414062 -1.75 5.875 -2.03125 L 3.609375 -4.28125 C 3.347656 -4.082031 3.140625 -3.875 2.984375 -3.65625 C 2.828125 -3.4375 2.75 -3.1875 2.75 -2.90625 Z M 5.203125 -7.75 C 5.203125 -7.988281 5.117188 -8.175781 4.953125 -8.3125 C 4.796875 -8.457031 4.585938 -8.53125 4.328125 -8.53125 C 4.023438 -8.53125 3.785156 -8.457031 3.609375 -8.3125 C 3.429688 -8.164062 3.34375 -7.957031 3.34375 -7.6875 C 3.34375 -7.28125 3.5625 -6.835938 4 -6.359375 C 4.382812 -6.578125 4.679688 -6.789062 4.890625 -7 C 5.097656 -7.21875 5.203125 -7.46875 5.203125 -7.75 Z M 5.203125 -7.75 "/></g></g></g><g fill="#000000" fill-opacity="1"><g transform="translate(998.005401, 323.830378)"><g/></g></g><g fill="#000000" fill-opacity="1"><g transform="translate(1008.640166, 323.830378)"><g><path d="M 5.484375 0 L 3.078125 -7.84375 L 3.015625 -7.84375 C 3.109375 -6.25 3.15625 -5.1875 3.15625 -4.65625 L 3.15625 0 L 1.265625 0 L 1.265625 -10 L 4.140625 -10 L 6.515625 -2.359375 L 6.546875 -2.359375 L 9.0625 -10 L 11.9375 -10 L 11.9375 0 L 9.96875 0 L 9.96875 -4.734375 C 9.96875 -4.953125 9.96875 -5.207031 9.96875 -5.5 C 9.976562 -5.789062 10.007812 -6.566406 10.0625 -7.828125 L 10.015625 -7.828125 L 7.4375 0 Z M 5.484375 0 "/></g></g></g><g fill="#000000" fill-opacity="1"><g transform="translate(1028.833081, 323.830378)"><g><path d="M 10.328125 -5.015625 C 10.328125 -3.359375 9.914062 -2.082031 9.09375 -1.1875 C 8.28125 -0.300781 7.109375 0.140625 5.578125 0.140625 C 4.046875 0.140625 2.867188 -0.300781 2.046875 -1.1875 C 1.222656 -2.082031 0.8125 -3.363281 0.8125 -5.03125 C 0.8125 -6.6875 1.222656 -7.953125 2.046875 -8.828125 C 2.867188 -9.710938 4.046875 -10.15625 5.578125 -10.15625 C 7.117188 -10.15625 8.296875 -9.710938 9.109375 -8.828125 C 9.921875 -7.941406 10.328125 -6.671875 10.328125 -5.015625 Z M 3.03125 -5.015625 C 3.03125 -3.898438 3.242188 -3.054688 3.671875 -2.484375 C 4.097656 -1.921875 4.734375 -1.640625 5.578125 -1.640625 C 7.265625 -1.640625 8.109375 -2.765625 8.109375 -5.015625 C 8.109375 -7.265625 7.265625 -8.390625 5.578125 -8.390625 C 4.742188 -8.390625 4.109375 -8.101562 3.671875 -7.53125 C 3.242188 -6.96875 3.03125 -6.128906 3.03125 -5.015625 Z M 3.03125 -5.015625 "/></g></g></g><g fill="#000000" fill-opacity="1"><g transform="translate(1046.96954, 323.830378)"><g><path d="M 3.375 -5.5625 L 4.0625 -5.5625 C 4.726562 -5.5625 5.21875 -5.671875 5.53125 -5.890625 C 5.851562 -6.117188 6.015625 -6.472656 6.015625 -6.953125 C 6.015625 -7.421875 5.851562 -7.753906 5.53125 -7.953125 C 5.207031 -8.160156 4.703125 -8.265625 4.015625 -8.265625 L 3.375 -8.265625 Z M 3.375 -3.828125 L 3.375 0 L 1.265625 0 L 1.265625 -10 L 4.171875 -10 C 5.523438 -10 6.523438 -9.75 7.171875 -9.25 C 7.828125 -8.757812 8.15625 -8.007812 8.15625 -7 C 8.15625 -6.414062 7.992188 -5.894531 7.671875 -5.4375 C 7.347656 -4.976562 6.890625 -4.617188 6.296875 -4.359375 C 7.804688 -2.109375 8.789062 -0.65625 9.25 0 L 6.890625 0 L 4.5 -3.828125 Z M 3.375 -3.828125 "/></g></g></g><g fill="#000000" fill-opacity="1"><g transform="translate(1063.206645, 323.830378)"><g><path d="M 7.015625 0 L 1.265625 0 L 1.265625 -10 L 7.015625 -10 L 7.015625 -8.265625 L 3.375 -8.265625 L 3.375 -6.0625 L 6.765625 -6.0625 L 6.765625 -4.328125 L 3.375 -4.328125 L 3.375 -1.75 L 7.015625 -1.75 Z M 7.015625 0 "/></g></g></g></svg>