<svg xmlns="http://www.w3.org/2000/svg" xmlns:xlink="http://www.w3.org/1999/xlink" width="600" zoomAndPan="magnify" viewBox="0 0 450 149.999998" height="200" preserveAspectRatio="xMidYMid meet" version="1.0"><defs><g/><clipPath id="f35b80adac"><path d="M 337.902344 0 L 439.152344 0 L 439.152344 50.460938 L 337.902344 50.460938 Z M 337.902344 0 " clip-rule="nonzero"/></clipPath><clipPath id="4226104b21"><path d="M 15 99.210938 L 116.25 99.210938 L 116.25 150 L 15 150 Z M 15 99.210938 " clip-rule="nonzero"/></clipPath></defs><rect x="-45" width="540" fill="#ffffff" y="-15" height="179.999997" fill-opacity="1"/><rect x="-45" width="540" fill="#ebe4de" y="-15" height="179.999997" fill-opacity="1"/><g clip-path="url(#f35b80adac)"><path fill="#ffffff" d="M 399.148438 5.839844 C 406.164062 1.246094 418.257812 0.648438 439.480469 0 C 418.257812 -0.652344 406.164062 -1.25 399.148438 -5.84375 C 401.238281 -10.558594 405.746094 -16.027344 412.671875 -23.984375 C 404.71875 -17.054688 399.25 -12.550781 394.53125 -10.457031 C 389.941406 -17.476562 389.34375 -29.570312 388.691406 -50.789062 C 388.039062 -29.570312 387.441406 -17.476562 382.851562 -10.457031 C 378.132812 -12.550781 372.664062 -17.054688 364.710938 -23.984375 C 371.636719 -16.027344 376.144531 -10.558594 378.234375 -5.84375 C 371.21875 -1.25 359.125 -0.652344 337.902344 0 C 359.125 0.648438 371.21875 1.246094 378.234375 5.839844 C 376.144531 10.558594 371.636719 16.023438 364.710938 23.980469 C 372.664062 17.050781 378.132812 12.546875 382.851562 10.457031 C 387.441406 17.472656 388.039062 29.566406 388.691406 50.789062 C 389.34375 29.566406 389.941406 17.472656 394.53125 10.457031 C 399.25 12.546875 404.71875 17.050781 412.671875 23.980469 C 405.746094 16.023438 401.238281 10.558594 399.148438 5.839844 Z M 399.148438 5.839844 " fill-opacity="1" fill-rule="nonzero"/></g><g clip-path="url(#4226104b21)"><path fill="#ffffff" d="M 76.246094 155.839844 C 83.261719 151.246094 95.355469 150.648438 116.578125 150 C 95.355469 149.347656 83.261719 148.75 76.246094 144.15625 C 78.335938 139.441406 82.84375 133.972656 89.769531 126.015625 C 81.816406 132.945312 76.347656 137.449219 71.628906 139.542969 C 67.039062 132.523438 66.441406 120.429688 65.789062 99.210938 C 65.136719 120.429688 64.539062 132.523438 59.949219 139.542969 C 55.230469 137.449219 49.761719 132.945312 41.808594 126.015625 C 48.734375 133.972656 53.242188 139.441406 55.332031 144.15625 C 48.316406 148.75 36.222656 149.347656 15 150 C 36.222656 150.648438 48.316406 151.246094 55.332031 155.839844 C 53.242188 160.558594 48.734375 166.023438 41.808594 173.980469 C 49.761719 167.050781 55.230469 162.546875 59.949219 160.457031 C 64.539062 167.472656 65.136719 179.566406 65.789062 200.789062 C 66.441406 179.566406 67.039062 167.472656 71.628906 160.457031 C 76.347656 162.546875 81.816406 167.050781 89.769531 173.980469 C 82.84375 166.023438 78.335938 160.558594 76.246094 155.839844 Z M 76.246094 155.839844 " fill-opacity="1" fill-rule="nonzero"/></g><g fill="#000000" fill-opacity="1"><g transform="translate(144.855468, 86.999997)"><g><path d="M 3.96875 -15.035156 L 20.410156 -15.035156 L 20.410156 -2.941406 C 20.410156 -0.441406 19.53125 -0.0195312 19.53125 -0.0195312 L 23.835938 -0.0195312 C 23.835938 -0.0195312 22.953125 -0.441406 22.953125 -2.941406 L 22.953125 -27.34375 C 22.953125 -29.839844 23.835938 -30.113281 23.835938 -30.113281 L 19.53125 -30.113281 C 19.53125 -30.113281 20.410156 -29.820312 20.410156 -27.320312 L 20.410156 -15.519531 L 3.96875 -15.519531 L 3.96875 -27.34375 C 3.96875 -29.839844 4.828125 -30.113281 4.828125 -30.113281 L 0.523438 -30.113281 C 0.523438 -30.113281 1.40625 -29.820312 1.40625 -27.320312 L 1.40625 -2.941406 C 1.40625 -0.441406 0.523438 -0.0195312 0.523438 -0.0195312 L 4.828125 -0.0195312 C 4.828125 -0.0195312 3.96875 -0.441406 3.96875 -2.941406 Z M 3.96875 -15.035156 "/></g></g></g><g fill="#000000" fill-opacity="1"><g transform="translate(169.635565, 86.999997)"><g><path d="M 11.320312 -22.46875 C 5.355469 -22.46875 0.523438 -17.410156 0.523438 -11.214844 C 0.523438 -5.019531 5.355469 0.0195312 11.320312 0.0195312 C 17.28125 0.0195312 22.113281 -5.019531 22.113281 -11.214844 C 22.113281 -17.410156 17.28125 -22.46875 11.320312 -22.46875 Z M 11.320312 -0.945312 C 6.824219 -0.945312 3.171875 -5.691406 3.171875 -11.320312 C 3.171875 -16.945312 6.824219 -21.503906 11.320312 -21.503906 C 15.8125 -21.503906 19.46875 -16.945312 19.46875 -11.320312 C 19.46875 -5.691406 15.8125 -0.945312 11.320312 -0.945312 Z M 11.320312 -0.945312 "/></g></g></g><g fill="#000000" fill-opacity="1"><g transform="translate(192.693657, 86.999997)"><g><path d="M 4.074219 -16.191406 C 5.292969 -22.195312 13.441406 -23.332031 15.097656 -17.347656 L 17.367188 -17.890625 C 15.75 -24.214844 4.410156 -24.277344 4.074219 -16.191406 Z M 0.523438 0 L 4.828125 0 C 4.828125 0 3.96875 -0.273438 3.96875 -2.773438 L 3.949219 -22.492188 L 0.523438 -21.167969 C 0.523438 -21.167969 1.40625 -20.746094 1.40625 -18.25 L 1.40625 -2.792969 C 1.40625 -0.292969 0.523438 0 0.523438 0 Z M 0.523438 0 "/></g></g></g><g fill="#000000" fill-opacity="1"><g transform="translate(211.005736, 86.999997)"><g><path d="M 2.644531 -28.183594 C 1.492188 -28.183594 0.523438 -27.214844 0.523438 -26.039062 C 0.523438 -24.886719 1.492188 -23.941406 2.644531 -23.941406 C 3.820312 -23.941406 4.765625 -24.886719 4.765625 -26.039062 C 4.765625 -27.214844 3.820312 -28.183594 2.644531 -28.183594 Z M 0.734375 0 L 5.039062 0 C 5.039062 0 4.179688 -0.273438 4.179688 -2.773438 L 4.15625 -22.492188 L 0.734375 -21.167969 C 0.734375 -21.167969 1.617188 -20.746094 1.617188 -18.25 L 1.617188 -2.792969 C 1.617188 -0.292969 0.734375 0 0.734375 0 Z M 0.734375 0 "/></g></g></g><g fill="#000000" fill-opacity="1"><g transform="translate(216.990755, 86.999997)"><g><path d="M 17.472656 -5.941406 C 17.472656 -4.242188 16.421875 -0.546875 10.585938 -0.546875 C 4.304688 -0.546875 2.667969 -4.914062 2.308594 -5.902344 L 0.523438 -3.738281 C 1.175781 -2.878906 3.214844 0 10.542969 0 C 17.890625 0 20.8125 -2.6875 20.8125 -6.382812 C 20.8125 -14.175781 4.347656 -10.5625 4.347656 -16.820312 C 4.347656 -20.140625 7.265625 -21.859375 10.164062 -21.859375 C 17.828125 -21.859375 17.933594 -17.136719 17.933594 -17.136719 L 18.753906 -20.578125 C 18.753906 -20.578125 15.769531 -22.449219 10.480469 -22.449219 C 2.035156 -22.449219 1.679688 -17.683594 1.679688 -16.800781 C 1.679688 -8.230469 17.472656 -12.179688 17.472656 -5.941406 Z M 17.472656 -5.941406 "/></g></g></g><g fill="#000000" fill-opacity="1"><g transform="translate(238.746843, 86.999997)"><g><path d="M 3.171875 -11.738281 L 3.171875 -12.011719 L 21.796875 -12.011719 C 21.796875 -19.570312 17.472656 -22.46875 11.527344 -22.46875 C 5.566406 -22.46875 0.523438 -17.828125 0.523438 -11.632812 C 0.523438 -5.4375 5.125 0.0195312 12.328125 0.0195312 C 17.03125 0.0195312 20.769531 -3.128906 21.125 -6.46875 C 19.675781 0.335938 3.316406 1.765625 3.171875 -11.738281 Z M 11.527344 -21.503906 C 17.011719 -21.503906 19.402344 -17.683594 19.402344 -12.664062 L 3.191406 -12.664062 C 3.550781 -17.808594 7.265625 -21.503906 11.527344 -21.503906 Z M 11.527344 -21.503906 "/></g></g></g><g fill="#000000" fill-opacity="1"><g transform="translate(261.489937, 86.999997)"><g><path d="M 11.320312 -22.46875 C 5.355469 -22.46875 0.523438 -17.410156 0.523438 -11.214844 C 0.523438 -5.019531 5.355469 0.0195312 11.320312 0.0195312 C 17.28125 0.0195312 22.113281 -5.019531 22.113281 -11.214844 C 22.113281 -17.410156 17.28125 -22.46875 11.320312 -22.46875 Z M 11.320312 -0.945312 C 6.824219 -0.945312 3.171875 -5.691406 3.171875 -11.320312 C 3.171875 -16.945312 6.824219 -21.503906 11.320312 -21.503906 C 15.8125 -21.503906 19.46875 -16.945312 19.46875 -11.320312 C 19.46875 -5.691406 15.8125 -0.945312 11.320312 -0.945312 Z M 11.320312 -0.945312 "/></g></g></g><g fill="#000000" fill-opacity="1"><g transform="translate(284.548029, 86.999997)"><g><path d="M 0.523438 -21.148438 C 0.523438 -21.148438 1.40625 -20.726562 1.40625 -18.207031 L 1.40625 -2.792969 C 1.40625 -0.292969 0.523438 0 0.523438 0 C 2.792969 0 3.96875 -0.441406 3.96875 -2.476562 L 3.96875 -22.46875 Z M 15.328125 0 L 19.636719 0 C 19.636719 0 18.753906 -0.273438 18.753906 -2.773438 L 18.753906 -16.632812 C 18.753906 -23.476562 5.480469 -25.578125 4.117188 -16.191406 C 6.195312 -23.519531 16.191406 -23.457031 16.191406 -16.148438 C 16.191406 -2.792969 16.191406 -2.792969 16.191406 -2.792969 C 16.191406 -0.292969 15.328125 0 15.328125 0 Z M 15.328125 0 "/></g></g></g></svg>