<svg xmlns="http://www.w3.org/2000/svg" xmlns:xlink="http://www.w3.org/1999/xlink" width="600" zoomAndPan="magnify" viewBox="0 0 450 149.999998" height="200" preserveAspectRatio="xMidYMid meet" version="1.0"><defs><g/><clipPath id="80c5ecf7c2"><path d="M 337.902344 0 L 439.152344 0 L 439.152344 50.460938 L 337.902344 50.460938 Z M 337.902344 0 " clip-rule="nonzero"/></clipPath><clipPath id="a79905eb85"><path d="M 15 99.210938 L 116.25 99.210938 L 116.25 150 L 15 150 Z M 15 99.210938 " clip-rule="nonzero"/></clipPath></defs><rect x="-45" width="540" fill="#ffffff" y="-15" height="179.999997" fill-opacity="1"/><rect x="-45" width="540" fill="#ebe4de" y="-15" height="179.999997" fill-opacity="1"/><g clip-path="url(#80c5ecf7c2)"><path fill="#ffffff" d="M 399.148438 5.839844 C 406.164062 1.246094 418.257812 0.648438 439.480469 0 C 418.257812 -0.652344 406.164062 -1.25 399.148438 -5.84375 C 401.238281 -10.558594 405.746094 -16.027344 412.671875 -23.984375 C 404.71875 -17.054688 399.25 -12.550781 394.53125 -10.457031 C 389.941406 -17.476562 389.34375 -29.570312 388.691406 -50.789062 C 388.039062 -29.570312 387.441406 -17.476562 382.851562 -10.457031 C 378.132812 -12.550781 372.664062 -17.054688 364.710938 -23.984375 C 371.636719 -16.027344 376.144531 -10.558594 378.234375 -5.84375 C 371.21875 -1.25 359.125 -0.652344 337.902344 0 C 359.125 0.648438 371.21875 1.246094 378.234375 5.839844 C 376.144531 10.558594 371.636719 16.023438 364.710938 23.980469 C 372.664062 17.050781 378.132812 12.546875 382.851562 10.457031 C 387.441406 17.472656 388.039062 29.566406 388.691406 50.789062 C 389.34375 29.566406 389.941406 17.472656 394.53125 10.457031 C 399.25 12.546875 404.71875 17.050781 412.671875 23.980469 C 405.746094 16.023438 401.238281 10.558594 399.148438 5.839844 Z M 399.148438 5.839844 " fill-opacity="1" fill-rule="nonzero"/></g><g clip-path="url(#a79905eb85)"><path fill="#ffffff" d="M 76.246094 155.839844 C 83.261719 151.246094 95.355469 150.648438 116.578125 150 C 95.355469 149.347656 83.261719 148.75 76.246094 144.15625 C 78.335938 139.441406 82.84375 133.972656 89.769531 126.015625 C 81.816406 132.945312 76.347656 137.449219 71.628906 139.542969 C 67.039062 132.523438 66.441406 120.429688 65.789062 99.210938 C 65.136719 120.429688 64.539062 132.523438 59.949219 139.542969 C 55.230469 137.449219 49.761719 132.945312 41.808594 126.015625 C 48.734375 133.972656 53.242188 139.441406 55.332031 144.15625 C 48.316406 148.75 36.222656 149.347656 15 150 C 36.222656 150.648438 48.316406 151.246094 55.332031 155.839844 C 53.242188 160.558594 48.734375 166.023438 41.808594 173.980469 C 49.761719 167.050781 55.230469 162.546875 59.949219 160.457031 C 64.539062 167.472656 65.136719 179.566406 65.789062 200.789062 C 66.441406 179.566406 67.039062 167.472656 71.628906 160.457031 C 76.347656 162.546875 81.816406 167.050781 89.769531 173.980469 C 82.84375 166.023438 78.335938 160.558594 76.246094 155.839844 Z M 76.246094 155.839844 " fill-opacity="1" fill-rule="nonzero"/></g><g fill="#000000" fill-opacity="1"><g transform="translate(180.637988, 28.94988)"><g><path d="M 4.128906 -17.195312 C 3.757812 -17.195312 0.300781 -17.195312 0.300781 -17.195312 C 0.300781 -17.195312 0.804688 -17.039062 0.804688 -15.613281 L 0.804688 -1.679688 C 0.804688 -0.253906 0.300781 -0.0117188 0.300781 -0.0117188 C 0.300781 -0.0117188 3.886719 -0.0117188 4.222656 -0.0117188 C 10.511719 -0.0117188 13.1875 -3.863281 13.1875 -8.59375 C 13.1875 -13.320312 10.789062 -17.195312 4.128906 -17.195312 Z M 3.769531 -0.539062 L 2.410156 -0.539062 C 2.328125 -0.78125 2.269531 -1.152344 2.269531 -1.679688 L 2.269531 -15.625 C 2.269531 -16.152344 2.328125 -16.5 2.410156 -16.738281 L 3.769531 -16.738281 C 10.054688 -16.738281 11.664062 -13.066406 11.664062 -8.628906 C 11.664062 -4.175781 9.984375 -0.539062 3.769531 -0.539062 Z M 3.769531 -0.539062 "/></g></g></g><g fill="#000000" fill-opacity="1"><g transform="translate(194.36601, 28.94988)"><g><path d="M 10.117188 -5.339844 C 10.117188 -2.929688 8.507812 -0.683594 5.617188 -0.683594 C 3.300781 -0.683594 1.824219 -1.847656 1.824219 -4.164062 C 1.824219 -8.773438 9.539062 -7.871094 10.042969 -9.253906 C 9.023438 -7.847656 0.300781 -9.492188 0.300781 -3.707031 C 0.300781 -2.398438 1.367188 0 5.304688 0 C 8.003906 0 9.40625 -1.597656 10.117188 -3.203125 L 10.117188 -1.597656 C 10.117188 -0.144531 11.039062 0 12.070312 0 C 12.070312 0 11.578125 -0.15625 11.578125 -1.585938 L 11.578125 -8.605469 C 11.59375 -10.800781 10.96875 -12.851562 6.9375 -12.851562 C 4.738281 -12.851562 2.53125 -12.085938 1.441406 -9.792969 L 2.722656 -8.941406 C 3.214844 -11.050781 4.835938 -12.457031 6.925781 -12.457031 C 9.78125 -12.457031 10.117188 -10.535156 10.117188 -8.59375 Z M 10.117188 -5.339844 "/></g></g></g><g fill="#000000" fill-opacity="1"><g transform="translate(206.978039, 28.94988)"><g><path d="M 1.511719 -16.105469 C 0.851562 -16.105469 0.300781 -15.550781 0.300781 -14.878906 C 0.300781 -14.21875 0.851562 -13.679688 1.511719 -13.679688 C 2.183594 -13.679688 2.722656 -14.21875 2.722656 -14.878906 C 2.722656 -15.550781 2.183594 -16.105469 1.511719 -16.105469 Z M 0.421875 0 L 2.878906 0 C 2.878906 0 2.386719 -0.15625 2.386719 -1.585938 L 2.375 -12.851562 L 0.421875 -12.097656 C 0.421875 -12.097656 0.925781 -11.855469 0.925781 -10.429688 L 0.925781 -1.597656 C 0.925781 -0.167969 0.421875 0 0.421875 0 Z M 0.421875 0 "/></g></g></g><g fill="#000000" fill-opacity="1"><g transform="translate(210.398049, 28.94988)"><g><path d="M 0.804688 -15.925781 L 0.804688 -1.597656 C 0.804688 -0.167969 0.300781 0 0.300781 0 L 2.761719 0 C 2.761719 0 2.269531 -0.15625 2.269531 -1.585938 L 2.257812 -18.359375 L 0.300781 -17.605469 C 0.300781 -17.605469 0.804688 -17.351562 0.804688 -15.925781 Z M 0.804688 -15.925781 "/></g></g></g><g fill="#000000" fill-opacity="1"><g transform="translate(213.698056, 28.94988)"><g><path d="M 2.269531 -3.636719 C 2.269531 -11.269531 2.269531 -12.863281 2.269531 -12.863281 L 0.300781 -12.097656 C 0.300781 -12.097656 0.804688 -11.941406 0.804688 -10.511719 L 0.804688 -3.359375 C 0.804688 0.550781 8.386719 1.753906 9.179688 -3.613281 C 7.980469 0.574219 2.269531 0.539062 2.269531 -3.636719 Z M 10.714844 -12.851562 L 8.761719 -12.097656 C 8.761719 -12.097656 9.253906 -11.855469 9.265625 -10.453125 L 9.265625 -1.246094 C 9.265625 0.550781 9.300781 4.117188 5.652344 4.117188 C 2.003906 4.117188 1.273438 1.066406 1.273438 1.066406 C 1.273438 2.675781 2.808594 4.800781 5.628906 4.800781 C 10.609375 4.800781 10.726562 1.308594 10.726562 -1.234375 Z M 10.714844 -12.851562 "/></g></g></g><g fill="#000000" fill-opacity="1"><g transform="translate(224.966079, 28.94988)"><g/></g></g><g fill="#000000" fill-opacity="1"><g transform="translate(231.206096, 28.94988)"><g><path d="M 11.796875 -10.894531 L 16.054688 -0.0117188 L 22.140625 -15.527344 C 22.691406 -16.957031 23.292969 -17.207031 23.292969 -17.207031 L 22.019531 -17.207031 C 22.019531 -17.207031 22.414062 -16.957031 21.863281 -15.527344 L 16.65625 -2.21875 L 11.449219 -15.527344 C 10.882812 -16.957031 11.292969 -17.207031 11.292969 -17.207031 L 8.832031 -17.207031 C 8.832031 -17.207031 9.421875 -16.957031 9.984375 -15.527344 L 11.664062 -11.242188 L 8.125 -2.21875 L 2.914062 -15.527344 C 2.363281 -16.957031 2.761719 -17.207031 2.761719 -17.207031 L 0.300781 -17.207031 C 0.300781 -17.207031 0.898438 -16.957031 1.464844 -15.527344 L 7.535156 -0.0117188 Z M 11.796875 -10.894531 "/></g></g></g><g fill="#000000" fill-opacity="1"><g transform="translate(255.038141, 28.94988)"><g><path d="M 1.8125 -6.707031 L 1.8125 -6.863281 L 12.457031 -6.863281 C 12.457031 -11.183594 9.984375 -12.839844 6.589844 -12.839844 C 3.179688 -12.839844 0.300781 -10.1875 0.300781 -6.648438 C 0.300781 -3.109375 2.929688 0.0117188 7.042969 0.0117188 C 9.730469 0.0117188 11.867188 -1.789062 12.070312 -3.695312 C 11.242188 0.191406 1.894531 1.007812 1.8125 -6.707031 Z M 6.589844 -12.289062 C 9.71875 -12.289062 11.089844 -10.105469 11.089844 -7.234375 L 1.824219 -7.234375 C 2.027344 -10.175781 4.152344 -12.289062 6.589844 -12.289062 Z M 6.589844 -12.289062 "/></g></g></g><g fill="#000000" fill-opacity="1"><g transform="translate(268.034165, 28.94988)"><g><path d="M 10.117188 -5.339844 C 10.117188 -2.929688 8.507812 -0.683594 5.617188 -0.683594 C 3.300781 -0.683594 1.824219 -1.847656 1.824219 -4.164062 C 1.824219 -8.773438 9.539062 -7.871094 10.042969 -9.253906 C 9.023438 -7.847656 0.300781 -9.492188 0.300781 -3.707031 C 0.300781 -2.398438 1.367188 0 5.304688 0 C 8.003906 0 9.40625 -1.597656 10.117188 -3.203125 L 10.117188 -1.597656 C 10.117188 -0.144531 11.039062 0 12.070312 0 C 12.070312 0 11.578125 -0.15625 11.578125 -1.585938 L 11.578125 -8.605469 C 11.59375 -10.800781 10.96875 -12.851562 6.9375 -12.851562 C 4.738281 -12.851562 2.53125 -12.085938 1.441406 -9.792969 L 2.722656 -8.941406 C 3.214844 -11.050781 4.835938 -12.457031 6.925781 -12.457031 C 9.78125 -12.457031 10.117188 -10.535156 10.117188 -8.59375 Z M 10.117188 -5.339844 "/></g></g></g><g fill="#000000" fill-opacity="1"><g transform="translate(280.646194, 28.94988)"><g><path d="M 3.492188 -12.839844 L 3.492188 -16.210938 L 1.535156 -15.457031 C 1.535156 -15.457031 2.039062 -15.214844 2.039062 -13.789062 C 2.039062 -13.789062 2.039062 -13.488281 2.039062 -12.839844 L 0.300781 -12.839844 L 0.300781 -12.433594 L 2.039062 -12.433594 C 2.039062 -10.738281 2.039062 -7.378906 2.039062 -1.882812 C 2.039062 -0.253906 3.226562 0 3.613281 0 C 4.390625 0 5.050781 -0.515625 5.050781 -1.296875 C 4.847656 -0.78125 3.480469 -0.539062 3.503906 -1.871094 L 3.492188 -12.433594 L 5.59375 -12.433594 L 5.59375 -12.839844 Z M 3.492188 -12.839844 "/></g></g></g><g fill="#000000" fill-opacity="1"><g transform="translate(286.778202, 28.94988)"><g><path d="M 2.257812 -18.359375 L 0.300781 -17.605469 C 0.300781 -17.605469 0.804688 -17.363281 0.804688 -15.925781 L 0.804688 -1.597656 C 0.804688 -0.167969 0.300781 0 0.300781 0 C 1.597656 0 2.269531 -0.253906 2.269531 -1.414062 Z M 8.761719 0 L 11.21875 0 C 11.21875 0 10.714844 -0.15625 10.714844 -1.585938 L 10.714844 -9.503906 C 10.714844 -13.414062 3.132812 -14.617188 2.351562 -9.253906 C 3.539062 -13.441406 9.253906 -13.402344 9.253906 -9.226562 C 9.253906 -1.597656 9.253906 -1.597656 9.253906 -1.597656 C 9.253906 -0.167969 8.761719 0 8.761719 0 Z M 8.761719 0 "/></g></g></g><g fill="#000000" fill-opacity="1"><g transform="translate(298.53823, 28.94988)"><g><path d="M 1.8125 -6.707031 L 1.8125 -6.863281 L 12.457031 -6.863281 C 12.457031 -11.183594 9.984375 -12.839844 6.589844 -12.839844 C 3.179688 -12.839844 0.300781 -10.1875 0.300781 -6.648438 C 0.300781 -3.109375 2.929688 0.0117188 7.042969 0.0117188 C 9.730469 0.0117188 11.867188 -1.789062 12.070312 -3.695312 C 11.242188 0.191406 1.894531 1.007812 1.8125 -6.707031 Z M 6.589844 -12.289062 C 9.71875 -12.289062 11.089844 -10.105469 11.089844 -7.234375 L 1.824219 -7.234375 C 2.027344 -10.175781 4.152344 -12.289062 6.589844 -12.289062 Z M 6.589844 -12.289062 "/></g></g></g><g fill="#000000" fill-opacity="1"><g transform="translate(311.534254, 28.94988)"><g><path d="M 2.328125 -9.253906 C 3.023438 -12.683594 7.679688 -13.332031 8.628906 -9.910156 L 9.925781 -10.222656 C 9 -13.835938 2.519531 -13.871094 2.328125 -9.253906 Z M 0.300781 0 L 2.761719 0 C 2.761719 0 2.269531 -0.15625 2.269531 -1.585938 L 2.257812 -12.851562 L 0.300781 -12.097656 C 0.300781 -12.097656 0.804688 -11.855469 0.804688 -10.429688 L 0.804688 -1.597656 C 0.804688 -0.167969 0.300781 0 0.300781 0 Z M 0.300781 0 "/></g></g></g></svg>